<?xml version="1.0" encoding="UTF-8" standalone="no"?><svg xmlns="http://www.w3.org/2000/svg" xmlns:xlink="http://www.w3.org/1999/xlink" contentStyleType="text/css" height="527px" preserveAspectRatio="none" style="width:359px;height:527px;background:#FFFFFF;" version="1.1" viewBox="0 0 359 527" width="359px" zoomAndPan="magnify"><defs/><g><!--MD5=[4520fda4e10d4d791ce48fe025810cd4]
class main--><g id="elem_main"><rect fill="#F1F1F1" height="63.6406" id="main" rx="2.5" ry="2.5" style="stroke:#181818;stroke-width:0.5;" width="75" x="150.5" y="7"/><ellipse cx="171.35" cy="23" fill="#ADD1B2" rx="11" ry="11" style="stroke:#181818;stroke-width:1.0;"/><path d="M174.1156,18.875 Q174.2719,18.6563 174.4594,18.5469 Q174.6469,18.4375 174.8656,18.4375 Q175.2406,18.4375 175.475,18.7031 Q175.7094,18.9531 175.7094,19.5625 L175.7094,21.0156 Q175.7094,21.625 175.475,21.8906 Q175.2406,22.1563 174.8656,22.1563 Q174.5219,22.1563 174.3188,21.9531 Q174.1156,21.7656 174.0063,21.25 Q173.9594,20.8906 173.7719,20.7031 Q173.4438,20.3281 172.8344,20.1094 Q172.225,19.8906 171.6,19.8906 Q170.8344,19.8906 170.1938,20.2188 Q169.5688,20.5469 169.0688,21.2969 Q168.5844,22.0469 168.5844,23.0781 L168.5844,24.1719 Q168.5844,25.4063 169.475,26.2344 Q170.3656,27.0469 171.9594,27.0469 Q172.8969,27.0469 173.5531,26.7969 Q173.9438,26.6406 174.3656,26.2031 Q174.6313,25.9375 174.7719,25.8594 Q174.9281,25.7813 175.1313,25.7813 Q175.4594,25.7813 175.7094,26.0469 Q175.975,26.2969 175.975,26.6406 Q175.975,26.9844 175.6313,27.3906 Q175.1313,27.9688 174.3344,28.2969 Q173.2563,28.75 171.9594,28.75 Q170.4438,28.75 169.2406,28.125 Q168.2563,27.625 167.5688,26.5625 Q166.8813,25.4844 166.8813,24.2031 L166.8813,23.0469 Q166.8813,21.7188 167.4906,20.5781 Q168.1156,19.4219 169.2094,18.8125 Q170.3031,18.1875 171.5375,18.1875 Q172.2719,18.1875 172.9125,18.3594 Q173.5688,18.5156 174.1156,18.875 Z " fill="#000000"/><text fill="#000000" font-family="sans-serif" font-size="14" lengthAdjust="spacing" textLength="30" x="186.65" y="27.8535">main</text><line style="stroke:#181818;stroke-width:0.5;" x1="151.5" x2="224.5" y1="39" y2="39"/><line style="stroke:#181818;stroke-width:0.5;" x1="151.5" x2="224.5" y1="47" y2="47"/><ellipse cx="161.5" cy="60.3203" fill="#84BE84" rx="3" ry="3" style="stroke:#038048;stroke-width:1.0;"/><text fill="#000000" font-family="sans-serif" font-size="14" lengthAdjust="spacing" textLength="49" x="170.5" y="63.6738">us308()</text></g><!--MD5=[474d34def3219da6650caeefce0800d4]
class DistibutionNetwork--><g id="elem_DistibutionNetwork"><rect fill="#F1F1F1" height="110.5625" id="DistibutionNetwork" rx="2.5" ry="2.5" style="stroke:#181818;stroke-width:0.5;" width="266" x="55" y="131"/><ellipse cx="125.75" cy="147" fill="#ADD1B2" rx="11" ry="11" style="stroke:#181818;stroke-width:1.0;"/><path d="M128.5156,142.875 Q128.6719,142.6563 128.8594,142.5469 Q129.0469,142.4375 129.2656,142.4375 Q129.6406,142.4375 129.875,142.7031 Q130.1094,142.9531 130.1094,143.5625 L130.1094,145.0156 Q130.1094,145.625 129.875,145.8906 Q129.6406,146.1563 129.2656,146.1563 Q128.9219,146.1563 128.7188,145.9531 Q128.5156,145.7656 128.4063,145.25 Q128.3594,144.8906 128.1719,144.7031 Q127.8438,144.3281 127.2344,144.1094 Q126.625,143.8906 126,143.8906 Q125.2344,143.8906 124.5938,144.2188 Q123.9688,144.5469 123.4688,145.2969 Q122.9844,146.0469 122.9844,147.0781 L122.9844,148.1719 Q122.9844,149.4063 123.875,150.2344 Q124.7656,151.0469 126.3594,151.0469 Q127.2969,151.0469 127.9531,150.7969 Q128.3438,150.6406 128.7656,150.2031 Q129.0313,149.9375 129.1719,149.8594 Q129.3281,149.7813 129.5313,149.7813 Q129.8594,149.7813 130.1094,150.0469 Q130.375,150.2969 130.375,150.6406 Q130.375,150.9844 130.0313,151.3906 Q129.5313,151.9688 128.7344,152.2969 Q127.6563,152.75 126.3594,152.75 Q124.8438,152.75 123.6406,152.125 Q122.6563,151.625 121.9688,150.5625 Q121.2813,149.4844 121.2813,148.2031 L121.2813,147.0469 Q121.2813,145.7188 121.8906,144.5781 Q122.5156,143.4219 123.6094,142.8125 Q124.7031,142.1875 125.9375,142.1875 Q126.6719,142.1875 127.3125,142.3594 Q127.9688,142.5156 128.5156,142.875 Z " fill="#000000"/><text fill="#000000" font-family="sans-serif" font-size="14" lengthAdjust="spacing" textLength="116" x="146.25" y="151.8535">DistibutionNetwork</text><line style="stroke:#181818;stroke-width:0.5;" x1="56" x2="320" y1="163" y2="163"/><rect fill="none" height="6" style="stroke:#C82930;stroke-width:1.0;" width="6" x="63" y="173.3203"/><text fill="#000000" font-family="sans-serif" font-size="14" lengthAdjust="spacing" textLength="89" x="75" y="179.6738">networkGraph</text><line style="stroke:#181818;stroke-width:0.5;" x1="56" x2="320" y1="186.6406" y2="186.6406"/><ellipse cx="66" cy="199.9609" fill="#84BE84" rx="3" ry="3" style="stroke:#038048;stroke-width:1.0;"/><text fill="#000000" font-family="sans-serif" font-size="14" lengthAdjust="spacing" textLength="240" x="75" y="203.3145">listaExpedicao(int dia, String filename)</text><ellipse cx="66" cy="215.6016" fill="#84BE84" rx="3" ry="3" style="stroke:#038048;stroke-width:1.0;"/><text fill="#000000" font-family="sans-serif" font-size="14" lengthAdjust="spacing" textLength="147" x="75" y="218.9551">getClientsNearestHub()</text><text fill="#000000" font-family="sans-serif" font-size="14" lengthAdjust="spacing" textLength="147" x="75" y="234.5957">getClientsNearestHub()</text></g><!--MD5=[ef63e85e32976ed6c3ca2a05ce10893d]
class CommonGraph--><g id="elem_CommonGraph"><rect codeLine="24" fill="#F1F1F1" height="63.6406" id="CommonGraph" rx="2.5" ry="2.5" style="stroke:#181818;stroke-width:0.5;" width="128" x="7" y="309.5"/><ellipse cx="22" cy="325.5" fill="#A9DCDF" rx="11" ry="11" style="stroke:#181818;stroke-width:1.0;"/><path d="M24.1875,327.2656 L20.0469,327.2656 L19.625,328.2969 L20.0469,328.2969 Q20.6563,328.2969 20.9219,328.5313 Q21.1875,328.7656 21.1875,329.1563 Q21.1875,329.5313 20.9219,329.7656 Q20.6563,330 20.0469,330 L17.75,330 Q17.1406,330 16.8906,329.7656 Q16.625,329.5313 16.625,329.1406 Q16.625,328.7656 16.9063,328.5313 Q17.1719,328.2813 17.7969,328.2969 L20.4688,321.6406 L19.3594,321.6406 Q18.75,321.6406 18.4844,321.4063 Q18.2188,321.1719 18.2188,320.7813 Q18.2188,320.4063 18.4844,320.1719 Q18.75,319.9375 19.3594,319.9375 L23.0313,319.9375 L26.4219,328.2969 Q27.0156,328.2969 27.2031,328.4375 Q27.5938,328.7031 27.5938,329.1563 Q27.5938,329.5313 27.3281,329.7656 Q27.0781,330 26.4688,330 L24.1719,330 Q23.5625,330 23.2969,329.7656 Q23.0313,329.5313 23.0313,329.1406 Q23.0313,328.7656 23.2969,328.5313 Q23.5625,328.2969 24.1719,328.2969 L24.5938,328.2969 L24.1875,327.2656 Z M23.4688,325.5625 L22.1094,322.1875 L20.7344,325.5625 L23.4688,325.5625 Z " fill="#000000"/><text fill="#000000" font-family="sans-serif" font-size="14" font-style="italic" lengthAdjust="spacing" textLength="96" x="36" y="330.3535">CommonGraph</text><line style="stroke:#181818;stroke-width:0.5;" x1="8" x2="134" y1="341.5" y2="341.5"/><line style="stroke:#181818;stroke-width:0.5;" x1="8" x2="134" y1="349.5" y2="349.5"/><ellipse cx="18" cy="362.8203" fill="#84BE84" rx="3" ry="3" style="stroke:#038048;stroke-width:1.0;"/><text fill="#000000" font-family="sans-serif" font-size="14" lengthAdjust="spacing" textLength="59" x="27" y="366.1738">vertices()</text></g><!--MD5=[b48e701c93ce5e3e09150936ffaa07a1]
class Cabaz--><g id="elem_Cabaz"><rect fill="#F1F1F1" height="79.2813" id="Cabaz" rx="2.5" ry="2.5" style="stroke:#181818;stroke-width:0.5;" width="113" x="185.5" y="441"/><ellipse cx="218.95" cy="457" fill="#ADD1B2" rx="11" ry="11" style="stroke:#181818;stroke-width:1.0;"/><path d="M221.7156,452.875 Q221.8719,452.6563 222.0594,452.5469 Q222.2469,452.4375 222.4656,452.4375 Q222.8406,452.4375 223.075,452.7031 Q223.3094,452.9531 223.3094,453.5625 L223.3094,455.0156 Q223.3094,455.625 223.075,455.8906 Q222.8406,456.1563 222.4656,456.1563 Q222.1219,456.1563 221.9188,455.9531 Q221.7156,455.7656 221.6063,455.25 Q221.5594,454.8906 221.3719,454.7031 Q221.0438,454.3281 220.4344,454.1094 Q219.825,453.8906 219.2,453.8906 Q218.4344,453.8906 217.7938,454.2188 Q217.1688,454.5469 216.6688,455.2969 Q216.1844,456.0469 216.1844,457.0781 L216.1844,458.1719 Q216.1844,459.4063 217.075,460.2344 Q217.9656,461.0469 219.5594,461.0469 Q220.4969,461.0469 221.1531,460.7969 Q221.5438,460.6406 221.9656,460.2031 Q222.2313,459.9375 222.3719,459.8594 Q222.5281,459.7813 222.7313,459.7813 Q223.0594,459.7813 223.3094,460.0469 Q223.575,460.2969 223.575,460.6406 Q223.575,460.9844 223.2313,461.3906 Q222.7313,461.9688 221.9344,462.2969 Q220.8563,462.75 219.5594,462.75 Q218.0438,462.75 216.8406,462.125 Q215.8563,461.625 215.1688,460.5625 Q214.4813,459.4844 214.4813,458.2031 L214.4813,457.0469 Q214.4813,455.7188 215.0906,454.5781 Q215.7156,453.4219 216.8094,452.8125 Q217.9031,452.1875 219.1375,452.1875 Q219.8719,452.1875 220.5125,452.3594 Q221.1688,452.5156 221.7156,452.875 Z " fill="#000000"/><text fill="#000000" font-family="sans-serif" font-size="14" lengthAdjust="spacing" textLength="40" x="237.05" y="461.8535">Cabaz</text><line style="stroke:#181818;stroke-width:0.5;" x1="186.5" x2="297.5" y1="473" y2="473"/><line style="stroke:#181818;stroke-width:0.5;" x1="186.5" x2="297.5" y1="481" y2="481"/><ellipse cx="196.5" cy="494.3203" fill="#84BE84" rx="3" ry="3" style="stroke:#038048;stroke-width:1.0;"/><text fill="#000000" font-family="sans-serif" font-size="14" lengthAdjust="spacing" textLength="51" x="205.5" y="497.6738">getDia()</text><ellipse cx="196.5" cy="509.9609" fill="#84BE84" rx="3" ry="3" style="stroke:#038048;stroke-width:1.0;"/><text fill="#000000" font-family="sans-serif" font-size="14" lengthAdjust="spacing" textLength="87" x="205.5" y="513.3145">getProdutos()</text></g><!--MD5=[3fd616f346a44cd59a91eb10b19e157c]
class User--><g id="elem_User"><rect fill="#F1F1F1" height="79.2813" id="User" rx="2.5" ry="2.5" style="stroke:#181818;stroke-width:0.5;" width="111" x="241.5" y="302"/><ellipse cx="279" cy="318" fill="#ADD1B2" rx="11" ry="11" style="stroke:#181818;stroke-width:1.0;"/><path d="M281.7656,313.875 Q281.9219,313.6563 282.1094,313.5469 Q282.2969,313.4375 282.5156,313.4375 Q282.8906,313.4375 283.125,313.7031 Q283.3594,313.9531 283.3594,314.5625 L283.3594,316.0156 Q283.3594,316.625 283.125,316.8906 Q282.8906,317.1563 282.5156,317.1563 Q282.1719,317.1563 281.9688,316.9531 Q281.7656,316.7656 281.6563,316.25 Q281.6094,315.8906 281.4219,315.7031 Q281.0938,315.3281 280.4844,315.1094 Q279.875,314.8906 279.25,314.8906 Q278.4844,314.8906 277.8438,315.2188 Q277.2188,315.5469 276.7188,316.2969 Q276.2344,317.0469 276.2344,318.0781 L276.2344,319.1719 Q276.2344,320.4063 277.125,321.2344 Q278.0156,322.0469 279.6094,322.0469 Q280.5469,322.0469 281.2031,321.7969 Q281.5938,321.6406 282.0156,321.2031 Q282.2813,320.9375 282.4219,320.8594 Q282.5781,320.7813 282.7813,320.7813 Q283.1094,320.7813 283.3594,321.0469 Q283.625,321.2969 283.625,321.6406 Q283.625,321.9844 283.2813,322.3906 Q282.7813,322.9688 281.9844,323.2969 Q280.9063,323.75 279.6094,323.75 Q278.0938,323.75 276.8906,323.125 Q275.9063,322.625 275.2188,321.5625 Q274.5313,320.4844 274.5313,319.2031 L274.5313,318.0469 Q274.5313,316.7188 275.1406,315.5781 Q275.7656,314.4219 276.8594,313.8125 Q277.9531,313.1875 279.1875,313.1875 Q279.9219,313.1875 280.5625,313.3594 Q281.2188,313.5156 281.7656,313.875 Z " fill="#000000"/><text fill="#000000" font-family="sans-serif" font-size="14" lengthAdjust="spacing" textLength="29" x="298" y="322.8535">User</text><line style="stroke:#181818;stroke-width:0.5;" x1="242.5" x2="351.5" y1="334" y2="334"/><line style="stroke:#181818;stroke-width:0.5;" x1="242.5" x2="351.5" y1="342" y2="342"/><ellipse cx="252.5" cy="355.3203" fill="#84BE84" rx="3" ry="3" style="stroke:#038048;stroke-width:1.0;"/><text fill="#000000" font-family="sans-serif" font-size="14" lengthAdjust="spacing" textLength="70" x="261.5" y="358.6738">getCabaz()</text><ellipse cx="252.5" cy="370.9609" fill="#84BE84" rx="3" ry="3" style="stroke:#038048;stroke-width:1.0;"/><text fill="#000000" font-family="sans-serif" font-size="14" lengthAdjust="spacing" textLength="85" x="261.5" y="374.3145">getCodUser()</text></g><!--MD5=[caf8bf660ca1ce7d7b83c7cda537838a]
link main to DistibutionNetwork--><g id="link_main_DistibutionNetwork"><path codeLine="1" d="M188,71.21 C188,87.09 188,106.93 188,125.61 " fill="none" id="main-to-DistibutionNetwork" style="stroke:#181818;stroke-width:1.0;stroke-dasharray:7.0,7.0;"/><polygon fill="#181818" points="188,130.84,192,121.84,188,125.84,184,121.84,188,130.84" style="stroke:#181818;stroke-width:1.0;"/></g><!--MD5=[a83154ed44f87bb7944e63d65f89990c]
link DistibutionNetwork to CommonGraph--><g id="link_DistibutionNetwork_CommonGraph"><path codeLine="2" d="M146.09,242.3 C130.12,263.19 112.35,286.43 98.11,305.05 " fill="none" id="DistibutionNetwork-to-CommonGraph" style="stroke:#181818;stroke-width:1.0;stroke-dasharray:7.0,7.0;"/><polygon fill="#181818" points="94.94,309.2,103.5889,304.4887,97.981,305.231,97.2386,299.6231,94.94,309.2" style="stroke:#181818;stroke-width:1.0;"/></g><!--MD5=[81b4e0d8c8605ae8177ef71486f759b7]
link DistibutionNetwork to Cabaz--><g id="link_DistibutionNetwork_Cabaz"><path codeLine="3" d="M198.09,242.08 C208.42,297.94 224.28,383.66 233.84,435.38 " fill="none" id="DistibutionNetwork-to-Cabaz" style="stroke:#181818;stroke-width:1.0;stroke-dasharray:7.0,7.0;"/><polygon fill="#181818" points="234.8,440.59,237.0913,431.0114,233.888,435.6739,229.2255,432.4706,234.8,440.59" style="stroke:#181818;stroke-width:1.0;"/></g><!--MD5=[8db25566b819ee7825a7bff82ad9eac2]
link DistibutionNetwork to User--><g id="link_DistibutionNetwork_User"><path codeLine="4" d="M227.04,242.3 C240,260.49 254.22,280.45 266.44,297.6 " fill="none" id="DistibutionNetwork-to-User" style="stroke:#181818;stroke-width:1.0;stroke-dasharray:7.0,7.0;"/><polygon fill="#181818" points="269.5,301.9,267.5366,292.2488,266.5992,297.8275,261.0206,296.8901,269.5,301.9" style="stroke:#181818;stroke-width:1.0;"/></g><!--MD5=[f70000acc8e75d57a06335a5fc2fe98c]
link User to Cabaz--><g id="link_User_Cabaz"><path codeLine="5" d="M281.53,381.03 C274.68,398.1 266.58,418.27 259.51,435.89 " fill="none" id="User-to-Cabaz" style="stroke:#181818;stroke-width:1.0;stroke-dasharray:7.0,7.0;"/><polygon fill="#181818" points="257.54,440.79,264.5964,433.9193,259.397,436.1476,257.1686,430.9481,257.54,440.79" style="stroke:#181818;stroke-width:1.0;"/></g><!--MD5=[2033a2642c2e3093686a5bb6a718dfde]
@startuml
main ..> DistibutionNetwork
DistibutionNetwork ..> CommonGraph
DistibutionNetwork ..> Cabaz
DistibutionNetwork ..> User
User ..> Cabaz


main : +us308()

DistibutionNetwork : -networkGraph
DistibutionNetwork : +listaExpedicao(int dia, String filename)
DistibutionNetwork : +getClientsNearestHub()
DistibutionNetwork : getClientsNearestHub()


User : +getCabaz()
User : +getCodUser()


Cabaz : +getDia()
Cabaz : +getProdutos()


abstract class CommonGraph{
+vertices()
}

@enduml

PlantUML version 1.2022.7(Mon Aug 22 18:01:30 WEST 2022)
(GPL source distribution)
Java Runtime: OpenJDK Runtime Environment
JVM: OpenJDK 64-Bit Server VM
Default Encoding: Cp1252
Language: pt
Country: PT
--></g></svg>