<?xml version="1.0" encoding="UTF-8" standalone="no"?><svg xmlns="http://www.w3.org/2000/svg" xmlns:xlink="http://www.w3.org/1999/xlink" contentStyleType="text/css" height="464px" preserveAspectRatio="none" style="width:429px;height:464px;background:#FFFFFF;" version="1.1" viewBox="0 0 429 464" width="429px" zoomAndPan="magnify"><defs/><g><!--MD5=[4520fda4e10d4d791ce48fe025810cd4]
class main--><g id="elem_main"><rect fill="#F1F1F1" height="63.6406" id="main" rx="2.5" ry="2.5" style="stroke:#181818;stroke-width:0.5;" width="75" x="150.5" y="7"/><ellipse cx="171.35" cy="23" fill="#ADD1B2" rx="11" ry="11" style="stroke:#181818;stroke-width:1.0;"/><path d="M174.1156,18.875 Q174.2719,18.6563 174.4594,18.5469 Q174.6469,18.4375 174.8656,18.4375 Q175.2406,18.4375 175.475,18.7031 Q175.7094,18.9531 175.7094,19.5625 L175.7094,21.0156 Q175.7094,21.625 175.475,21.8906 Q175.2406,22.1563 174.8656,22.1563 Q174.5219,22.1563 174.3188,21.9531 Q174.1156,21.7656 174.0063,21.25 Q173.9594,20.8906 173.7719,20.7031 Q173.4438,20.3281 172.8344,20.1094 Q172.225,19.8906 171.6,19.8906 Q170.8344,19.8906 170.1938,20.2188 Q169.5688,20.5469 169.0688,21.2969 Q168.5844,22.0469 168.5844,23.0781 L168.5844,24.1719 Q168.5844,25.4063 169.475,26.2344 Q170.3656,27.0469 171.9594,27.0469 Q172.8969,27.0469 173.5531,26.7969 Q173.9438,26.6406 174.3656,26.2031 Q174.6313,25.9375 174.7719,25.8594 Q174.9281,25.7813 175.1313,25.7813 Q175.4594,25.7813 175.7094,26.0469 Q175.975,26.2969 175.975,26.6406 Q175.975,26.9844 175.6313,27.3906 Q175.1313,27.9688 174.3344,28.2969 Q173.2563,28.75 171.9594,28.75 Q170.4438,28.75 169.2406,28.125 Q168.2563,27.625 167.5688,26.5625 Q166.8813,25.4844 166.8813,24.2031 L166.8813,23.0469 Q166.8813,21.7188 167.4906,20.5781 Q168.1156,19.4219 169.2094,18.8125 Q170.3031,18.1875 171.5375,18.1875 Q172.2719,18.1875 172.9125,18.3594 Q173.5688,18.5156 174.1156,18.875 Z " fill="#000000"/><text fill="#000000" font-family="sans-serif" font-size="14" lengthAdjust="spacing" textLength="30" x="186.65" y="27.8535">main</text><line style="stroke:#181818;stroke-width:0.5;" x1="151.5" x2="224.5" y1="39" y2="39"/><line style="stroke:#181818;stroke-width:0.5;" x1="151.5" x2="224.5" y1="47" y2="47"/><ellipse cx="161.5" cy="60.3203" fill="#84BE84" rx="3" ry="3" style="stroke:#038048;stroke-width:1.0;"/><text fill="#000000" font-family="sans-serif" font-size="14" lengthAdjust="spacing" textLength="49" x="170.5" y="63.6738">us307()</text></g><!--MD5=[474d34def3219da6650caeefce0800d4]
class DistibutionNetwork--><g id="elem_DistibutionNetwork"><rect fill="#F1F1F1" height="79.2813" id="DistibutionNetwork" rx="2.5" ry="2.5" style="stroke:#181818;stroke-width:0.5;" width="199" x="88.5" y="131"/><ellipse cx="126.45" cy="147" fill="#ADD1B2" rx="11" ry="11" style="stroke:#181818;stroke-width:1.0;"/><path d="M129.2156,142.875 Q129.3719,142.6563 129.5594,142.5469 Q129.7469,142.4375 129.9656,142.4375 Q130.3406,142.4375 130.575,142.7031 Q130.8094,142.9531 130.8094,143.5625 L130.8094,145.0156 Q130.8094,145.625 130.575,145.8906 Q130.3406,146.1563 129.9656,146.1563 Q129.6219,146.1563 129.4188,145.9531 Q129.2156,145.7656 129.1063,145.25 Q129.0594,144.8906 128.8719,144.7031 Q128.5438,144.3281 127.9344,144.1094 Q127.325,143.8906 126.7,143.8906 Q125.9344,143.8906 125.2938,144.2188 Q124.6688,144.5469 124.1688,145.2969 Q123.6844,146.0469 123.6844,147.0781 L123.6844,148.1719 Q123.6844,149.4063 124.575,150.2344 Q125.4656,151.0469 127.0594,151.0469 Q127.9969,151.0469 128.6531,150.7969 Q129.0438,150.6406 129.4656,150.2031 Q129.7313,149.9375 129.8719,149.8594 Q130.0281,149.7813 130.2313,149.7813 Q130.5594,149.7813 130.8094,150.0469 Q131.075,150.2969 131.075,150.6406 Q131.075,150.9844 130.7313,151.3906 Q130.2313,151.9688 129.4344,152.2969 Q128.3563,152.75 127.0594,152.75 Q125.5438,152.75 124.3406,152.125 Q123.3563,151.625 122.6688,150.5625 Q121.9813,149.4844 121.9813,148.2031 L121.9813,147.0469 Q121.9813,145.7188 122.5906,144.5781 Q123.2156,143.4219 124.3094,142.8125 Q125.4031,142.1875 126.6375,142.1875 Q127.3719,142.1875 128.0125,142.3594 Q128.6688,142.5156 129.2156,142.875 Z " fill="#000000"/><text fill="#000000" font-family="sans-serif" font-size="14" lengthAdjust="spacing" textLength="116" x="145.55" y="151.8535">DistibutionNetwork</text><line style="stroke:#181818;stroke-width:0.5;" x1="89.5" x2="286.5" y1="163" y2="163"/><line style="stroke:#181818;stroke-width:0.5;" x1="89.5" x2="286.5" y1="171" y2="171"/><ellipse cx="99.5" cy="184.3203" fill="#84BE84" rx="3" ry="3" style="stroke:#038048;stroke-width:1.0;"/><text fill="#000000" font-family="sans-serif" font-size="14" lengthAdjust="spacing" textLength="133" x="108.5" y="187.6738">read(String filename)</text><ellipse cx="99.5" cy="199.9609" fill="#84BE84" rx="3" ry="3" style="stroke:#038048;stroke-width:1.0;"/><text fill="#000000" font-family="sans-serif" font-size="14" lengthAdjust="spacing" textLength="173" x="108.5" y="203.3145">readCabaz(String filename)</text></g><!--MD5=[ef63e85e32976ed6c3ca2a05ce10893d]
class CommonGraph--><g id="elem_CommonGraph"><rect codeLine="18" fill="#F1F1F1" height="63.6406" id="CommonGraph" rx="2.5" ry="2.5" style="stroke:#181818;stroke-width:0.5;" width="128" x="7" y="270"/><ellipse cx="22" cy="286" fill="#A9DCDF" rx="11" ry="11" style="stroke:#181818;stroke-width:1.0;"/><path d="M24.1875,287.7656 L20.0469,287.7656 L19.625,288.7969 L20.0469,288.7969 Q20.6563,288.7969 20.9219,289.0313 Q21.1875,289.2656 21.1875,289.6563 Q21.1875,290.0313 20.9219,290.2656 Q20.6563,290.5 20.0469,290.5 L17.75,290.5 Q17.1406,290.5 16.8906,290.2656 Q16.625,290.0313 16.625,289.6406 Q16.625,289.2656 16.9063,289.0313 Q17.1719,288.7813 17.7969,288.7969 L20.4688,282.1406 L19.3594,282.1406 Q18.75,282.1406 18.4844,281.9063 Q18.2188,281.6719 18.2188,281.2813 Q18.2188,280.9063 18.4844,280.6719 Q18.75,280.4375 19.3594,280.4375 L23.0313,280.4375 L26.4219,288.7969 Q27.0156,288.7969 27.2031,288.9375 Q27.5938,289.2031 27.5938,289.6563 Q27.5938,290.0313 27.3281,290.2656 Q27.0781,290.5 26.4688,290.5 L24.1719,290.5 Q23.5625,290.5 23.2969,290.2656 Q23.0313,290.0313 23.0313,289.6406 Q23.0313,289.2656 23.2969,289.0313 Q23.5625,288.7969 24.1719,288.7969 L24.5938,288.7969 L24.1875,287.7656 Z M23.4688,286.0625 L22.1094,282.6875 L20.7344,286.0625 L23.4688,286.0625 Z " fill="#000000"/><text fill="#000000" font-family="sans-serif" font-size="14" font-style="italic" lengthAdjust="spacing" textLength="96" x="36" y="290.8535">CommonGraph</text><line style="stroke:#181818;stroke-width:0.5;" x1="8" x2="134" y1="302" y2="302"/><line style="stroke:#181818;stroke-width:0.5;" x1="8" x2="134" y1="310" y2="310"/><ellipse cx="18" cy="323.3203" fill="#84BE84" rx="3" ry="3" style="stroke:#038048;stroke-width:1.0;"/><text fill="#000000" font-family="sans-serif" font-size="14" lengthAdjust="spacing" textLength="59" x="27" y="326.6738">vertices()</text></g><!--MD5=[b48e701c93ce5e3e09150936ffaa07a1]
class Cabaz--><g id="elem_Cabaz"><rect fill="#F1F1F1" height="63.6406" id="Cabaz" rx="2.5" ry="2.5" style="stroke:#181818;stroke-width:0.5;" width="96" x="212" y="394"/><ellipse cx="237.8" cy="410" fill="#ADD1B2" rx="11" ry="11" style="stroke:#181818;stroke-width:1.0;"/><path d="M240.5656,405.875 Q240.7219,405.6563 240.9094,405.5469 Q241.0969,405.4375 241.3156,405.4375 Q241.6906,405.4375 241.925,405.7031 Q242.1594,405.9531 242.1594,406.5625 L242.1594,408.0156 Q242.1594,408.625 241.925,408.8906 Q241.6906,409.1563 241.3156,409.1563 Q240.9719,409.1563 240.7688,408.9531 Q240.5656,408.7656 240.4563,408.25 Q240.4094,407.8906 240.2219,407.7031 Q239.8938,407.3281 239.2844,407.1094 Q238.675,406.8906 238.05,406.8906 Q237.2844,406.8906 236.6438,407.2188 Q236.0188,407.5469 235.5188,408.2969 Q235.0344,409.0469 235.0344,410.0781 L235.0344,411.1719 Q235.0344,412.4063 235.925,413.2344 Q236.8156,414.0469 238.4094,414.0469 Q239.3469,414.0469 240.0031,413.7969 Q240.3938,413.6406 240.8156,413.2031 Q241.0813,412.9375 241.2219,412.8594 Q241.3781,412.7813 241.5813,412.7813 Q241.9094,412.7813 242.1594,413.0469 Q242.425,413.2969 242.425,413.6406 Q242.425,413.9844 242.0813,414.3906 Q241.5813,414.9688 240.7844,415.2969 Q239.7063,415.75 238.4094,415.75 Q236.8938,415.75 235.6906,415.125 Q234.7063,414.625 234.0188,413.5625 Q233.3313,412.4844 233.3313,411.2031 L233.3313,410.0469 Q233.3313,408.7188 233.9406,407.5781 Q234.5656,406.4219 235.6594,405.8125 Q236.7531,405.1875 237.9875,405.1875 Q238.7219,405.1875 239.3625,405.3594 Q240.0188,405.5156 240.5656,405.875 Z " fill="#000000"/><text fill="#000000" font-family="sans-serif" font-size="14" lengthAdjust="spacing" textLength="40" x="254.2" y="414.8535">Cabaz</text><line style="stroke:#181818;stroke-width:0.5;" x1="213" x2="307" y1="426" y2="426"/><line style="stroke:#181818;stroke-width:0.5;" x1="213" x2="307" y1="434" y2="434"/><ellipse cx="223" cy="447.3203" fill="#84BE84" rx="3" ry="3" style="stroke:#038048;stroke-width:1.0;"/><text fill="#000000" font-family="sans-serif" font-size="14" lengthAdjust="spacing" textLength="70" x="232" y="450.6738">getCabaz()</text></g><!--MD5=[3fd616f346a44cd59a91eb10b19e157c]
class User--><g id="elem_User"><rect fill="#F1F1F1" height="63.6406" id="User" rx="2.5" ry="2.5" style="stroke:#181818;stroke-width:0.5;" width="181" x="241.5" y="270"/><ellipse cx="313.25" cy="286" fill="#ADD1B2" rx="11" ry="11" style="stroke:#181818;stroke-width:1.0;"/><path d="M316.0156,281.875 Q316.1719,281.6563 316.3594,281.5469 Q316.5469,281.4375 316.7656,281.4375 Q317.1406,281.4375 317.375,281.7031 Q317.6094,281.9531 317.6094,282.5625 L317.6094,284.0156 Q317.6094,284.625 317.375,284.8906 Q317.1406,285.1563 316.7656,285.1563 Q316.4219,285.1563 316.2188,284.9531 Q316.0156,284.7656 315.9063,284.25 Q315.8594,283.8906 315.6719,283.7031 Q315.3438,283.3281 314.7344,283.1094 Q314.125,282.8906 313.5,282.8906 Q312.7344,282.8906 312.0938,283.2188 Q311.4688,283.5469 310.9688,284.2969 Q310.4844,285.0469 310.4844,286.0781 L310.4844,287.1719 Q310.4844,288.4063 311.375,289.2344 Q312.2656,290.0469 313.8594,290.0469 Q314.7969,290.0469 315.4531,289.7969 Q315.8438,289.6406 316.2656,289.2031 Q316.5313,288.9375 316.6719,288.8594 Q316.8281,288.7813 317.0313,288.7813 Q317.3594,288.7813 317.6094,289.0469 Q317.875,289.2969 317.875,289.6406 Q317.875,289.9844 317.5313,290.3906 Q317.0313,290.9688 316.2344,291.2969 Q315.1563,291.75 313.8594,291.75 Q312.3438,291.75 311.1406,291.125 Q310.1563,290.625 309.4688,289.5625 Q308.7813,288.4844 308.7813,287.2031 L308.7813,286.0469 Q308.7813,284.7188 309.3906,283.5781 Q310.0156,282.4219 311.1094,281.8125 Q312.2031,281.1875 313.4375,281.1875 Q314.1719,281.1875 314.8125,281.3594 Q315.4688,281.5156 316.0156,281.875 Z " fill="#000000"/><text fill="#000000" font-family="sans-serif" font-size="14" lengthAdjust="spacing" textLength="29" x="333.75" y="290.8535">User</text><line style="stroke:#181818;stroke-width:0.5;" x1="242.5" x2="421.5" y1="302" y2="302"/><line style="stroke:#181818;stroke-width:0.5;" x1="242.5" x2="421.5" y1="310" y2="310"/><ellipse cx="252.5" cy="323.3203" fill="#84BE84" rx="3" ry="3" style="stroke:#038048;stroke-width:1.0;"/><text fill="#000000" font-family="sans-serif" font-size="14" lengthAdjust="spacing" textLength="155" x="261.5" y="326.6738">addCabaz(Cabaz cabaz)</text></g><!--MD5=[caf8bf660ca1ce7d7b83c7cda537838a]
link main to DistibutionNetwork--><g id="link_main_DistibutionNetwork"><path codeLine="2" d="M188,71.02 C188,87.43 188,107.86 188,125.85 " fill="none" id="main-to-DistibutionNetwork" style="stroke:#181818;stroke-width:1.0;stroke-dasharray:7.0,7.0;"/><polygon fill="#181818" points="188,130.85,192,121.85,188,125.85,184,121.85,188,130.85" style="stroke:#181818;stroke-width:1.0;"/></g><!--MD5=[a83154ed44f87bb7944e63d65f89990c]
link DistibutionNetwork to CommonGraph--><g id="link_DistibutionNetwork_CommonGraph"><path codeLine="3" d="M153.21,210 C137.18,227.75 118.29,248.66 102.66,265.96 " fill="none" id="DistibutionNetwork-to-CommonGraph" style="stroke:#181818;stroke-width:1.0;stroke-dasharray:7.0,7.0;"/><polygon fill="#181818" points="99.17,269.82,108.18,265.8426,102.5298,266.1171,102.2553,260.4669,99.17,269.82" style="stroke:#181818;stroke-width:1.0;"/></g><!--MD5=[81b4e0d8c8605ae8177ef71486f759b7]
link DistibutionNetwork to Cabaz--><g id="link_DistibutionNetwork_Cabaz"><path codeLine="4" d="M194.75,210.03 C200.99,243.24 211.22,292.28 224,334 C229.64,352.4 237.34,372.34 244.17,388.84 " fill="none" id="DistibutionNetwork-to-Cabaz" style="stroke:#181818;stroke-width:1.0;stroke-dasharray:7.0,7.0;"/><polygon fill="#181818" points="246.26,393.85,246.48,384.0036,244.3319,389.2367,239.0987,387.0886,246.26,393.85" style="stroke:#181818;stroke-width:1.0;"/></g><!--MD5=[8db25566b819ee7825a7bff82ad9eac2]
link DistibutionNetwork to User--><g id="link_DistibutionNetwork_User"><path codeLine="5" d="M230.81,210 C250.71,227.9 274.19,249.01 293.52,266.39 " fill="none" id="DistibutionNetwork-to-User" style="stroke:#181818;stroke-width:1.0;stroke-dasharray:7.0,7.0;"/><polygon fill="#181818" points="297.33,269.82,293.3162,260.8261,293.6135,266.4752,287.9645,266.7725,297.33,269.82" style="stroke:#181818;stroke-width:1.0;"/></g><!--MD5=[f70000acc8e75d57a06335a5fc2fe98c]
link User to Cabaz--><g id="link_User_Cabaz"><path codeLine="6" d="M313.65,334.1 C303.66,351.02 291.27,372.02 280.91,389.57 " fill="none" id="User-to-Cabaz" style="stroke:#181818;stroke-width:1.0;stroke-dasharray:7.0,7.0;"/><polygon fill="#181818" points="278.32,393.96,286.3442,388.2493,280.8651,389.6562,279.4581,384.1771,278.32,393.96" style="stroke:#181818;stroke-width:1.0;"/></g><!--MD5=[dd2de91255bd785ff0ee1c7930828b54]
@startuml

main ..>  DistibutionNetwork
DistibutionNetwork ..> CommonGraph
DistibutionNetwork ..> Cabaz
DistibutionNetwork ..> User
User ..> Cabaz

main : +us307()

Cabaz : +getCabaz()

User : +addCabaz(Cabaz cabaz)

DistibutionNetwork : +read(String filename)
DistibutionNetwork : +readCabaz(String filename)


abstract class CommonGraph{
+vertices()
}


@enduml

PlantUML version 1.2022.7(Mon Aug 22 18:01:30 WEST 2022)
(GPL source distribution)
Java Runtime: OpenJDK Runtime Environment
JVM: OpenJDK 64-Bit Server VM
Default Encoding: Cp1252
Language: pt
Country: PT
--></g></svg>