<?xml version="1.0" encoding="UTF-8" standalone="no"?><svg xmlns="http://www.w3.org/2000/svg" xmlns:xlink="http://www.w3.org/1999/xlink" contentStyleType="text/css" height="499px" preserveAspectRatio="none" style="width:829px;height:499px;background:#FFFFFF;" version="1.1" viewBox="0 0 829 499" width="829px" zoomAndPan="magnify"><defs/><g><rect fill="#FFFFFF" height="310.7109" style="stroke:#181818;stroke-width:1.0;" width="10" x="21" y="90.6406"/><rect fill="#FFFFFF" height="28.5234" style="stroke:#181818;stroke-width:1.0;" width="10" x="304" y="111.1641"/><rect fill="#FFFFFF" height="233.1406" style="stroke:#181818;stroke-width:1.0;" width="10" x="304" y="168.2109"/><rect fill="#FFFFFF" height="176.0938" style="stroke:#181818;stroke-width:1.0;" width="10" x="500" y="196.7344"/><rect fill="#FFFFFF" height="30" style="stroke:#181818;stroke-width:1.0;" width="10" x="636.5" y="248.7813"/><rect fill="#FFFFFF" height="30" style="stroke:#181818;stroke-width:1.0;" width="10" x="727" y="307.3047"/><rect fill="none" height="133.5703" style="stroke:#000000;stroke-width:1.5;" width="340" x="425.5" y="211.7344"/><line style="stroke:#181818;stroke-width:0.5;stroke-dasharray:5.0,5.0;" x1="26" x2="26" y1="80.6406" y2="419.3516"/><line style="stroke:#181818;stroke-width:0.5;stroke-dasharray:5.0,5.0;" x1="309" x2="309" y1="80.6406" y2="419.3516"/><line style="stroke:#181818;stroke-width:0.5;stroke-dasharray:5.0,5.0;" x1="504.5" x2="504.5" y1="80.6406" y2="419.3516"/><line style="stroke:#181818;stroke-width:0.5;stroke-dasharray:5.0,5.0;" x1="641.5" x2="641.5" y1="80.6406" y2="419.3516"/><line style="stroke:#181818;stroke-width:0.5;stroke-dasharray:5.0,5.0;" x1="731.5" x2="731.5" y1="80.6406" y2="419.3516"/><line style="stroke:#181818;stroke-width:0.5;stroke-dasharray:5.0,5.0;" x1="794.5" x2="794.5" y1="80.6406" y2="419.3516"/><text fill="#000000" font-family="sans-serif" font-size="14" lengthAdjust="spacing" textLength="36" x="5" y="77.6738">Client</text><ellipse cx="26" cy="13.5" fill="#E2E2F0" rx="8" ry="8" style="stroke:#181818;stroke-width:0.5;"/><path d="M26,21.5 L26,48.5 M13,29.5 L39,29.5 M26,48.5 L13,63.5 M26,48.5 L39,63.5 " fill="none" style="stroke:#181818;stroke-width:0.5;"/><text fill="#000000" font-family="sans-serif" font-size="14" lengthAdjust="spacing" textLength="36" x="5" y="431.0254">Client</text><ellipse cx="26" cy="442.4922" fill="#E2E2F0" rx="8" ry="8" style="stroke:#181818;stroke-width:0.5;"/><path d="M26,450.4922 L26,477.4922 M13,458.4922 L39,458.4922 M26,477.4922 L13,492.4922 M26,477.4922 L39,492.4922 " fill="none" style="stroke:#181818;stroke-width:0.5;"/><rect fill="#E2E2F0" height="29.6406" rx="2.5" ry="2.5" style="stroke:#181818;stroke-width:0.5;" width="48" x="285" y="50"/><text fill="#000000" font-family="sans-serif" font-size="14" lengthAdjust="spacing" textLength="34" x="292" y="69.6738">:main</text><rect fill="#E2E2F0" height="29.6406" rx="2.5" ry="2.5" style="stroke:#181818;stroke-width:0.5;" width="48" x="285" y="418.3516"/><text fill="#000000" font-family="sans-serif" font-size="14" lengthAdjust="spacing" textLength="34" x="292" y="438.0254">:main</text><rect fill="#E2E2F0" height="29.6406" rx="2.5" ry="2.5" style="stroke:#181818;stroke-width:0.5;" width="139" x="435.5" y="50"/><text fill="#000000" font-family="sans-serif" font-size="14" lengthAdjust="spacing" textLength="125" x="442.5" y="69.6738">:DistributionNetwork</text><rect fill="#E2E2F0" height="29.6406" rx="2.5" ry="2.5" style="stroke:#181818;stroke-width:0.5;" width="139" x="435.5" y="418.3516"/><text fill="#000000" font-family="sans-serif" font-size="14" lengthAdjust="spacing" textLength="125" x="442.5" y="438.0254">:DistributionNetwork</text><rect fill="#E2E2F0" height="29.6406" rx="2.5" ry="2.5" style="stroke:#181818;stroke-width:0.5;" width="114" x="584.5" y="50"/><text fill="#000000" font-family="sans-serif" font-size="14" lengthAdjust="spacing" textLength="100" x="591.5" y="69.6738">:CommonGraph</text><rect fill="#E2E2F0" height="29.6406" rx="2.5" ry="2.5" style="stroke:#181818;stroke-width:0.5;" width="114" x="584.5" y="418.3516"/><text fill="#000000" font-family="sans-serif" font-size="14" lengthAdjust="spacing" textLength="100" x="591.5" y="438.0254">:CommonGraph</text><rect fill="#E2E2F0" height="29.6406" rx="2.5" ry="2.5" style="stroke:#181818;stroke-width:0.5;" width="47" x="708.5" y="50"/><text fill="#000000" font-family="sans-serif" font-size="14" lengthAdjust="spacing" textLength="33" x="715.5" y="69.6738">:User</text><rect fill="#E2E2F0" height="29.6406" rx="2.5" ry="2.5" style="stroke:#181818;stroke-width:0.5;" width="47" x="708.5" y="418.3516"/><text fill="#000000" font-family="sans-serif" font-size="14" lengthAdjust="spacing" textLength="33" x="715.5" y="438.0254">:User</text><rect fill="#E2E2F0" height="29.6406" rx="2.5" ry="2.5" style="stroke:#181818;stroke-width:0.5;" width="58" x="765.5" y="50"/><text fill="#000000" font-family="sans-serif" font-size="14" lengthAdjust="spacing" textLength="44" x="772.5" y="69.6738">:Cabaz</text><rect fill="#E2E2F0" height="29.6406" rx="2.5" ry="2.5" style="stroke:#181818;stroke-width:0.5;" width="58" x="765.5" y="418.3516"/><text fill="#000000" font-family="sans-serif" font-size="14" lengthAdjust="spacing" textLength="44" x="772.5" y="438.0254">:Cabaz</text><rect fill="#FFFFFF" height="310.7109" style="stroke:#181818;stroke-width:1.0;" width="10" x="21" y="90.6406"/><rect fill="#FFFFFF" height="28.5234" style="stroke:#181818;stroke-width:1.0;" width="10" x="304" y="111.1641"/><rect fill="#FFFFFF" height="233.1406" style="stroke:#181818;stroke-width:1.0;" width="10" x="304" y="168.2109"/><rect fill="#FFFFFF" height="176.0938" style="stroke:#181818;stroke-width:1.0;" width="10" x="500" y="196.7344"/><rect fill="#FFFFFF" height="30" style="stroke:#181818;stroke-width:1.0;" width="10" x="636.5" y="248.7813"/><rect fill="#FFFFFF" height="30" style="stroke:#181818;stroke-width:1.0;" width="10" x="727" y="307.3047"/><polygon fill="#181818" points="292,107.1641,302,111.1641,292,115.1641,296,111.1641" style="stroke:#181818;stroke-width:1.0;"/><line style="stroke:#181818;stroke-width:1.0;" x1="31" x2="298" y1="111.1641" y2="111.1641"/><text fill="#000000" font-family="sans-serif" font-size="13" font-weight="bold" lengthAdjust="spacing" textLength="7" x="38" y="106.4092">1</text><text fill="#000000" font-family="sans-serif" font-size="13" lengthAdjust="spacing" textLength="98" x="49" y="106.4092">inicia o processo</text><polygon fill="#181818" points="42,135.6875,32,139.6875,42,143.6875,38,139.6875" style="stroke:#181818;stroke-width:1.0;"/><line style="stroke:#181818;stroke-width:1.0;stroke-dasharray:2.0,2.0;" x1="36" x2="308" y1="139.6875" y2="139.6875"/><text fill="#000000" font-family="sans-serif" font-size="13" font-weight="bold" lengthAdjust="spacing" textLength="7" x="48" y="134.9326">2</text><text fill="#000000" font-family="sans-serif" font-size="13" lengthAdjust="spacing" textLength="238" x="59" y="134.9326">pede o nome do ficheiro com os cabazes</text><polygon fill="#181818" points="292,164.2109,302,168.2109,292,172.2109,296,168.2109" style="stroke:#181818;stroke-width:1.0;"/><line style="stroke:#181818;stroke-width:1.0;" x1="31" x2="298" y1="168.2109" y2="168.2109"/><text fill="#000000" font-family="sans-serif" font-size="13" font-weight="bold" lengthAdjust="spacing" textLength="7" x="38" y="163.4561">3</text><text fill="#000000" font-family="sans-serif" font-size="13" lengthAdjust="spacing" textLength="224" x="49" y="163.4561">dá o nome do ficheiro com os cabazes</text><polygon fill="#181818" points="488,192.7344,498,196.7344,488,200.7344,492,196.7344" style="stroke:#181818;stroke-width:1.0;"/><line style="stroke:#181818;stroke-width:1.0;" x1="314" x2="494" y1="196.7344" y2="196.7344"/><text fill="#000000" font-family="sans-serif" font-size="13" font-weight="bold" lengthAdjust="spacing" textLength="7" x="321" y="191.9795">4</text><text fill="#000000" font-family="sans-serif" font-size="13" lengthAdjust="spacing" textLength="156" x="332" y="191.9795">readCabaz(String filename)</text><path d="M425.5,211.7344 L498.5,211.7344 L498.5,218.2578 L488.5,228.2578 L425.5,228.2578 L425.5,211.7344 " fill="#EEEEEE" style="stroke:#000000;stroke-width:1.5;"/><rect fill="none" height="133.5703" style="stroke:#000000;stroke-width:1.5;" width="340" x="425.5" y="211.7344"/><text fill="#000000" font-family="sans-serif" font-size="13" font-weight="bold" lengthAdjust="spacing" textLength="28" x="440.5" y="224.5029">loop</text><text fill="#000000" font-family="sans-serif" font-size="11" font-weight="bold" lengthAdjust="spacing" textLength="97" x="513.5" y="223.6924">[(para cada User)]</text><polygon fill="#181818" points="624.5,244.7813,634.5,248.7813,624.5,252.7813,628.5,248.7813" style="stroke:#181818;stroke-width:1.0;"/><line style="stroke:#181818;stroke-width:1.0;" x1="510" x2="630.5" y1="248.7813" y2="248.7813"/><text fill="#000000" font-family="sans-serif" font-size="13" font-weight="bold" lengthAdjust="spacing" textLength="7" x="517" y="244.0264">5</text><text fill="#000000" font-family="sans-serif" font-size="13" lengthAdjust="spacing" textLength="52" x="528" y="244.0264">vertices()</text><polygon fill="#181818" points="715,303.3047,725,307.3047,715,311.3047,719,307.3047" style="stroke:#181818;stroke-width:1.0;"/><line style="stroke:#181818;stroke-width:1.0;" x1="510" x2="721" y1="307.3047" y2="307.3047"/><text fill="#000000" font-family="sans-serif" font-size="13" font-weight="bold" lengthAdjust="spacing" textLength="7" x="517" y="302.5498">6</text><text fill="#000000" font-family="sans-serif" font-size="13" lengthAdjust="spacing" textLength="101" x="528" y="302.5498">addCabaz(cabaz)</text><polygon fill="#181818" points="325,368.8281,315,372.8281,325,376.8281,321,372.8281" style="stroke:#181818;stroke-width:1.0;"/><line style="stroke:#181818;stroke-width:1.0;stroke-dasharray:2.0,2.0;" x1="319" x2="504" y1="372.8281" y2="372.8281"/><text fill="#000000" font-family="sans-serif" font-size="13" font-weight="bold" lengthAdjust="spacing" textLength="7" x="331" y="368.0732">7</text><text fill="#000000" font-family="sans-serif" font-size="13" lengthAdjust="spacing" textLength="92" x="342" y="368.0732">fim do processo</text><polygon fill="#181818" points="37,397.3516,27,401.3516,37,405.3516,33,401.3516" style="stroke:#181818;stroke-width:1.0;"/><line style="stroke:#181818;stroke-width:1.0;stroke-dasharray:2.0,2.0;" x1="31" x2="308" y1="401.3516" y2="401.3516"/><text fill="#000000" font-family="sans-serif" font-size="13" font-weight="bold" lengthAdjust="spacing" textLength="7" x="43" y="396.5967">8</text><text fill="#000000" font-family="sans-serif" font-size="13" lengthAdjust="spacing" textLength="92" x="54" y="396.5967">fim do processo</text><!--MD5=[3459139dc5feadccc75fb5b362c132d9]
@startuml
actor "Client" as cli
participant ":main" as main
participant ":DistributionNetwork" as disNet
participant ":CommonGraph" as graph
participant ":User" as user
participant ":Cabaz" as cabaz

autonumber

activate cli

cli -> main : inicia o processo
activate main

main - -> cli: pede o nome do ficheiro com os cabazes
deactivate main

cli -> main: dá o nome do ficheiro com os cabazes
activate main

main -> disNet: readCabaz(String filename)
activate disNet

loop (para cada User)
disNet -> graph : vertices()
activate graph
deactivate graph
disNet -> user : addCabaz(cabaz)
activate user
deactivate user
end


disNet - -> main: fim do processo
deactivate disNet

main - -> cli: fim do processo

deactivate main

deactivate cli
@enduml

PlantUML version 1.2022.7(Mon Aug 22 18:01:30 WEST 2022)
(GPL source distribution)
Java Runtime: OpenJDK Runtime Environment
JVM: OpenJDK 64-Bit Server VM
Default Encoding: Cp1252
Language: pt
Country: PT
--></g></svg>