<?xml version="1.0" encoding="UTF-8" standalone="no"?><svg xmlns="http://www.w3.org/2000/svg" xmlns:xlink="http://www.w3.org/1999/xlink" contentStyleType="text/css" height="356px" preserveAspectRatio="none" style="width:1110px;height:356px;background:#FFFFFF;" version="1.1" viewBox="0 0 1110 356" width="1110px" zoomAndPan="magnify"><defs/><g><!--MD5=[4520fda4e10d4d791ce48fe025810cd4]
class main--><g id="elem_main"><rect fill="#F1F1F1" height="63.6406" id="main" rx="2.5" ry="2.5" style="stroke:#181818;stroke-width:0.5;" width="75" x="316.5" y="7"/><ellipse cx="337.35" cy="23" fill="#ADD1B2" rx="11" ry="11" style="stroke:#181818;stroke-width:1.0;"/><path d="M340.1156,18.875 Q340.2719,18.6563 340.4594,18.5469 Q340.6469,18.4375 340.8656,18.4375 Q341.2406,18.4375 341.475,18.7031 Q341.7094,18.9531 341.7094,19.5625 L341.7094,21.0156 Q341.7094,21.625 341.475,21.8906 Q341.2406,22.1563 340.8656,22.1563 Q340.5219,22.1563 340.3188,21.9531 Q340.1156,21.7656 340.0063,21.25 Q339.9594,20.8906 339.7719,20.7031 Q339.4438,20.3281 338.8344,20.1094 Q338.225,19.8906 337.6,19.8906 Q336.8344,19.8906 336.1938,20.2188 Q335.5688,20.5469 335.0688,21.2969 Q334.5844,22.0469 334.5844,23.0781 L334.5844,24.1719 Q334.5844,25.4063 335.475,26.2344 Q336.3656,27.0469 337.9594,27.0469 Q338.8969,27.0469 339.5531,26.7969 Q339.9438,26.6406 340.3656,26.2031 Q340.6313,25.9375 340.7719,25.8594 Q340.9281,25.7813 341.1313,25.7813 Q341.4594,25.7813 341.7094,26.0469 Q341.975,26.2969 341.975,26.6406 Q341.975,26.9844 341.6313,27.3906 Q341.1313,27.9688 340.3344,28.2969 Q339.2563,28.75 337.9594,28.75 Q336.4438,28.75 335.2406,28.125 Q334.2563,27.625 333.5688,26.5625 Q332.8813,25.4844 332.8813,24.2031 L332.8813,23.0469 Q332.8813,21.7188 333.4906,20.5781 Q334.1156,19.4219 335.2094,18.8125 Q336.3031,18.1875 337.5375,18.1875 Q338.2719,18.1875 338.9125,18.3594 Q339.5688,18.5156 340.1156,18.875 Z " fill="#000000"/><text fill="#000000" font-family="sans-serif" font-size="14" lengthAdjust="spacing" textLength="30" x="352.65" y="27.8535">main</text><line style="stroke:#181818;stroke-width:0.5;" x1="317.5" x2="390.5" y1="39" y2="39"/><line style="stroke:#181818;stroke-width:0.5;" x1="317.5" x2="390.5" y1="47" y2="47"/><ellipse cx="327.5" cy="60.3203" fill="#84BE84" rx="3" ry="3" style="stroke:#038048;stroke-width:1.0;"/><text fill="#000000" font-family="sans-serif" font-size="14" lengthAdjust="spacing" textLength="49" x="336.5" y="63.6738">us303()</text></g><!--MD5=[474d34def3219da6650caeefce0800d4]
class DistibutionNetwork--><g id="elem_DistibutionNetwork"><rect fill="#F1F1F1" height="79.2813" id="DistibutionNetwork" rx="2.5" ry="2.5" style="stroke:#181818;stroke-width:0.5;" width="148" x="280" y="131"/><ellipse cx="295" cy="147" fill="#ADD1B2" rx="11" ry="11" style="stroke:#181818;stroke-width:1.0;"/><path d="M297.7656,142.875 Q297.9219,142.6563 298.1094,142.5469 Q298.2969,142.4375 298.5156,142.4375 Q298.8906,142.4375 299.125,142.7031 Q299.3594,142.9531 299.3594,143.5625 L299.3594,145.0156 Q299.3594,145.625 299.125,145.8906 Q298.8906,146.1563 298.5156,146.1563 Q298.1719,146.1563 297.9688,145.9531 Q297.7656,145.7656 297.6563,145.25 Q297.6094,144.8906 297.4219,144.7031 Q297.0938,144.3281 296.4844,144.1094 Q295.875,143.8906 295.25,143.8906 Q294.4844,143.8906 293.8438,144.2188 Q293.2188,144.5469 292.7188,145.2969 Q292.2344,146.0469 292.2344,147.0781 L292.2344,148.1719 Q292.2344,149.4063 293.125,150.2344 Q294.0156,151.0469 295.6094,151.0469 Q296.5469,151.0469 297.2031,150.7969 Q297.5938,150.6406 298.0156,150.2031 Q298.2813,149.9375 298.4219,149.8594 Q298.5781,149.7813 298.7813,149.7813 Q299.1094,149.7813 299.3594,150.0469 Q299.625,150.2969 299.625,150.6406 Q299.625,150.9844 299.2813,151.3906 Q298.7813,151.9688 297.9844,152.2969 Q296.9063,152.75 295.6094,152.75 Q294.0938,152.75 292.8906,152.125 Q291.9063,151.625 291.2188,150.5625 Q290.5313,149.4844 290.5313,148.2031 L290.5313,147.0469 Q290.5313,145.7188 291.1406,144.5781 Q291.7656,143.4219 292.8594,142.8125 Q293.9531,142.1875 295.1875,142.1875 Q295.9219,142.1875 296.5625,142.3594 Q297.2188,142.5156 297.7656,142.875 Z " fill="#000000"/><text fill="#000000" font-family="sans-serif" font-size="14" lengthAdjust="spacing" textLength="116" x="309" y="151.8535">DistibutionNetwork</text><line style="stroke:#181818;stroke-width:0.5;" x1="281" x2="427" y1="163" y2="163"/><rect fill="none" height="6" style="stroke:#C82930;stroke-width:1.0;" width="6" x="288" y="173.3203"/><text fill="#000000" font-family="sans-serif" font-size="14" lengthAdjust="spacing" textLength="31" x="300" y="179.6738">hubs</text><line style="stroke:#181818;stroke-width:0.5;" x1="281" x2="427" y1="186.6406" y2="186.6406"/><ellipse cx="291" cy="199.9609" fill="#84BE84" rx="3" ry="3" style="stroke:#038048;stroke-width:1.0;"/><text fill="#000000" font-family="sans-serif" font-size="14" lengthAdjust="spacing" textLength="118" x="300" y="203.3145">networkHubs(int n)</text></g><!--MD5=[ef63e85e32976ed6c3ca2a05ce10893d]
class CommonGraph--><g id="elem_CommonGraph"><rect fill="#F1F1F1" height="79.2813" id="CommonGraph" rx="2.5" ry="2.5" style="stroke:#181818;stroke-width:0.5;" width="128" x="7" y="270"/><ellipse cx="22" cy="286" fill="#ADD1B2" rx="11" ry="11" style="stroke:#181818;stroke-width:1.0;"/><path d="M24.7656,281.875 Q24.9219,281.6563 25.1094,281.5469 Q25.2969,281.4375 25.5156,281.4375 Q25.8906,281.4375 26.125,281.7031 Q26.3594,281.9531 26.3594,282.5625 L26.3594,284.0156 Q26.3594,284.625 26.125,284.8906 Q25.8906,285.1563 25.5156,285.1563 Q25.1719,285.1563 24.9688,284.9531 Q24.7656,284.7656 24.6563,284.25 Q24.6094,283.8906 24.4219,283.7031 Q24.0938,283.3281 23.4844,283.1094 Q22.875,282.8906 22.25,282.8906 Q21.4844,282.8906 20.8438,283.2188 Q20.2188,283.5469 19.7188,284.2969 Q19.2344,285.0469 19.2344,286.0781 L19.2344,287.1719 Q19.2344,288.4063 20.125,289.2344 Q21.0156,290.0469 22.6094,290.0469 Q23.5469,290.0469 24.2031,289.7969 Q24.5938,289.6406 25.0156,289.2031 Q25.2813,288.9375 25.4219,288.8594 Q25.5781,288.7813 25.7813,288.7813 Q26.1094,288.7813 26.3594,289.0469 Q26.625,289.2969 26.625,289.6406 Q26.625,289.9844 26.2813,290.3906 Q25.7813,290.9688 24.9844,291.2969 Q23.9063,291.75 22.6094,291.75 Q21.0938,291.75 19.8906,291.125 Q18.9063,290.625 18.2188,289.5625 Q17.5313,288.4844 17.5313,287.2031 L17.5313,286.0469 Q17.5313,284.7188 18.1406,283.5781 Q18.7656,282.4219 19.8594,281.8125 Q20.9531,281.1875 22.1875,281.1875 Q22.9219,281.1875 23.5625,281.3594 Q24.2188,281.5156 24.7656,281.875 Z " fill="#000000"/><text fill="#000000" font-family="sans-serif" font-size="14" lengthAdjust="spacing" textLength="96" x="36" y="290.8535">CommonGraph</text><line style="stroke:#181818;stroke-width:0.5;" x1="8" x2="134" y1="302" y2="302"/><line style="stroke:#181818;stroke-width:0.5;" x1="8" x2="134" y1="310" y2="310"/><ellipse cx="18" cy="323.3203" fill="#84BE84" rx="3" ry="3" style="stroke:#038048;stroke-width:1.0;"/><text fill="#000000" font-family="sans-serif" font-size="14" lengthAdjust="spacing" textLength="59" x="27" y="326.6738">vertices()</text><ellipse cx="18" cy="338.9609" fill="#84BE84" rx="3" ry="3" style="stroke:#038048;stroke-width:1.0;"/><text fill="#000000" font-family="sans-serif" font-size="14" lengthAdjust="spacing" textLength="88" x="27" y="342.3145">numVertices()</text></g><!--MD5=[4533588fb66c6fa31a6e04bf29ae6161]
class Algorithms--><g id="elem_Algorithms"><rect fill="#F1F1F1" height="63.6406" id="Algorithms" rx="2.5" ry="2.5" style="stroke:#181818;stroke-width:0.5;" width="933" x="170.5" y="277.5"/><ellipse cx="599.75" cy="293.5" fill="#ADD1B2" rx="11" ry="11" style="stroke:#181818;stroke-width:1.0;"/><path d="M602.5156,289.375 Q602.6719,289.1563 602.8594,289.0469 Q603.0469,288.9375 603.2656,288.9375 Q603.6406,288.9375 603.875,289.2031 Q604.1094,289.4531 604.1094,290.0625 L604.1094,291.5156 Q604.1094,292.125 603.875,292.3906 Q603.6406,292.6563 603.2656,292.6563 Q602.9219,292.6563 602.7188,292.4531 Q602.5156,292.2656 602.4063,291.75 Q602.3594,291.3906 602.1719,291.2031 Q601.8438,290.8281 601.2344,290.6094 Q600.625,290.3906 600,290.3906 Q599.2344,290.3906 598.5938,290.7188 Q597.9688,291.0469 597.4688,291.7969 Q596.9844,292.5469 596.9844,293.5781 L596.9844,294.6719 Q596.9844,295.9063 597.875,296.7344 Q598.7656,297.5469 600.3594,297.5469 Q601.2969,297.5469 601.9531,297.2969 Q602.3438,297.1406 602.7656,296.7031 Q603.0313,296.4375 603.1719,296.3594 Q603.3281,296.2813 603.5313,296.2813 Q603.8594,296.2813 604.1094,296.5469 Q604.375,296.7969 604.375,297.1406 Q604.375,297.4844 604.0313,297.8906 Q603.5313,298.4688 602.7344,298.7969 Q601.6563,299.25 600.3594,299.25 Q598.8438,299.25 597.6406,298.625 Q596.6563,298.125 595.9688,297.0625 Q595.2813,295.9844 595.2813,294.7031 L595.2813,293.5469 Q595.2813,292.2188 595.8906,291.0781 Q596.5156,289.9219 597.6094,289.3125 Q598.7031,288.6875 599.9375,288.6875 Q600.6719,288.6875 601.3125,288.8594 Q601.9688,289.0156 602.5156,289.375 Z " fill="#000000"/><text fill="#000000" font-family="sans-serif" font-size="14" lengthAdjust="spacing" textLength="66" x="620.25" y="298.3535">Algorithms</text><line style="stroke:#181818;stroke-width:0.5;" x1="171.5" x2="1102.5" y1="309.5" y2="309.5"/><line style="stroke:#181818;stroke-width:0.5;" x1="171.5" x2="1102.5" y1="317.5" y2="317.5"/><ellipse cx="181.5" cy="330.8203" fill="#84BE84" rx="3" ry="3" style="stroke:#038048;stroke-width:1.0;"/><text fill="#000000" font-family="sans-serif" font-size="14" lengthAdjust="spacing" textLength="907" x="190.5" y="334.1738">shortestPaths(Graph&lt;V, E&gt; g, V vOrig, Comparator&lt;E&gt; ce, BinaryOperator&lt;E&gt; sum, E zero,ArrayList&lt;LinkedList&lt;V&gt;&gt; paths, ArrayList&lt;E&gt; dists)</text></g><!--MD5=[caf8bf660ca1ce7d7b83c7cda537838a]
link main to DistibutionNetwork--><g id="link_main_DistibutionNetwork"><path codeLine="1" d="M354,71.02 C354,87.43 354,107.86 354,125.85 " fill="none" id="main-to-DistibutionNetwork" style="stroke:#181818;stroke-width:1.0;stroke-dasharray:7.0,7.0;"/><polygon fill="#181818" points="354,130.85,358,121.85,354,125.85,350,121.85,354,130.85" style="stroke:#181818;stroke-width:1.0;"/></g><!--MD5=[a83154ed44f87bb7944e63d65f89990c]
link DistibutionNetwork to CommonGraph--><g id="link_DistibutionNetwork_CommonGraph"><path codeLine="2" d="M279.65,207.5 C236.35,228.45 182.14,254.7 139.83,275.18 " fill="none" id="DistibutionNetwork-to-CommonGraph" style="stroke:#181818;stroke-width:1.0;stroke-dasharray:7.0,7.0;"/><polygon fill="#181818" points="135.25,277.4,145.094,277.0912,139.7531,275.2271,141.6173,269.8862,135.25,277.4" style="stroke:#181818;stroke-width:1.0;"/></g><!--MD5=[5407427cb850f81b85222d23ffa957e1]
link DistibutionNetwork to Algorithms--><g id="link_DistibutionNetwork_Algorithms"><path codeLine="3" d="M428.35,207.5 C471.65,228.45 525.86,254.7 568.17,275.18 " fill="none" id="DistibutionNetwork-to-Algorithms" style="stroke:#181818;stroke-width:1.0;stroke-dasharray:7.0,7.0;"/><polygon fill="#181818" points="572.75,277.4,566.3827,269.8862,568.2469,275.2271,562.906,277.0912,572.75,277.4" style="stroke:#181818;stroke-width:1.0;"/></g><!--MD5=[afd6993a1de906ba06cca2fb892531a0]
@startuml
main ..> DistibutionNetwork
DistibutionNetwork ..> CommonGraph
DistibutionNetwork ..> Algorithms

main : +us303()

DistibutionNetwork : -hubs
DistibutionNetwork : +networkHubs(int n)

Algorithms : +shortestPaths(Graph<V, E> g, V vOrig, Comparator<E> ce, BinaryOperator<E> sum, E zero,ArrayList<LinkedList<V>> paths, ArrayList<E> dists)

CommonGraph : +vertices()
CommonGraph : +numVertices()

@enduml

PlantUML version 1.2022.7(Mon Aug 22 18:01:30 WEST 2022)
(GPL source distribution)
Java Runtime: OpenJDK Runtime Environment
JVM: OpenJDK 64-Bit Server VM
Default Encoding: Cp1252
Language: pt
Country: PT
--></g></svg>