<?xml version="1.0" encoding="UTF-8" standalone="no"?><svg xmlns="http://www.w3.org/2000/svg" xmlns:xlink="http://www.w3.org/1999/xlink" contentStyleType="text/css" height="873px" preserveAspectRatio="none" style="width:963px;height:873px;background:#FFFFFF;" version="1.1" viewBox="0 0 963 873" width="963px" zoomAndPan="magnify"><defs/><g><rect fill="#FFFFFF" height="684.9922" style="stroke:#181818;stroke-width:1.0;" width="10" x="21" y="90.6406"/><rect fill="#FFFFFF" height="43.0469" style="stroke:#181818;stroke-width:1.0;" width="10" x="277" y="111.1641"/><rect fill="#FFFFFF" height="43.0469" style="stroke:#181818;stroke-width:1.0;" width="10" x="277" y="197.2578"/><rect fill="#FFFFFF" height="492.2813" style="stroke:#181818;stroke-width:1.0;" width="10" x="277" y="283.3516"/><rect fill="#FFFFFF" height="435.2344" style="stroke:#181818;stroke-width:1.0;" width="10" x="543" y="311.875"/><rect fill="#FFFFFF" height="348.6641" style="stroke:#181818;stroke-width:1.0;" width="10" x="548" y="362.9219"/><rect fill="#FFFFFF" height="28" style="stroke:#181818;stroke-width:1.0;" width="10" x="553" y="683.5859"/><rect fill="#FFFFFF" height="30" style="stroke:#181818;stroke-width:1.0;" width="10" x="760" y="396.4453"/><rect fill="#FFFFFF" height="30" style="stroke:#181818;stroke-width:1.0;" width="10" x="850.5" y="478.4922"/><rect fill="#FFFFFF" height="30" style="stroke:#181818;stroke-width:1.0;" width="10" x="913" y="537.0156"/><rect fill="#FFFFFF" height="30" style="stroke:#181818;stroke-width:1.0;" width="10" x="913" y="595.5391"/><rect fill="none" height="192.0938" style="stroke:#000000;stroke-width:1.5;" width="488.5" x="468.5" y="441.4453"/><line style="stroke:#181818;stroke-width:0.5;stroke-dasharray:5.0,5.0;" x1="26" x2="26" y1="80.6406" y2="793.6328"/><line style="stroke:#181818;stroke-width:0.5;stroke-dasharray:5.0,5.0;" x1="282" x2="282" y1="80.6406" y2="793.6328"/><line style="stroke:#181818;stroke-width:0.5;stroke-dasharray:5.0,5.0;" x1="547.5" x2="547.5" y1="80.6406" y2="793.6328"/><line style="stroke:#181818;stroke-width:0.5;stroke-dasharray:5.0,5.0;" x1="765" x2="765" y1="80.6406" y2="793.6328"/><line style="stroke:#181818;stroke-width:0.5;stroke-dasharray:5.0,5.0;" x1="855" x2="855" y1="80.6406" y2="793.6328"/><line style="stroke:#181818;stroke-width:0.5;stroke-dasharray:5.0,5.0;" x1="918" x2="918" y1="80.6406" y2="793.6328"/><text fill="#000000" font-family="sans-serif" font-size="14" lengthAdjust="spacing" textLength="36" x="5" y="77.6738">Client</text><ellipse cx="26" cy="13.5" fill="#E2E2F0" rx="8" ry="8" style="stroke:#181818;stroke-width:0.5;"/><path d="M26,21.5 L26,48.5 M13,29.5 L39,29.5 M26,48.5 L13,63.5 M26,48.5 L39,63.5 " fill="none" style="stroke:#181818;stroke-width:0.5;"/><text fill="#000000" font-family="sans-serif" font-size="14" lengthAdjust="spacing" textLength="36" x="5" y="805.3066">Client</text><ellipse cx="26" cy="816.7734" fill="#E2E2F0" rx="8" ry="8" style="stroke:#181818;stroke-width:0.5;"/><path d="M26,824.7734 L26,851.7734 M13,832.7734 L39,832.7734 M26,851.7734 L13,866.7734 M26,851.7734 L39,866.7734 " fill="none" style="stroke:#181818;stroke-width:0.5;"/><rect fill="#E2E2F0" height="29.6406" rx="2.5" ry="2.5" style="stroke:#181818;stroke-width:0.5;" width="48" x="258" y="50"/><text fill="#000000" font-family="sans-serif" font-size="14" lengthAdjust="spacing" textLength="34" x="265" y="69.6738">:main</text><rect fill="#E2E2F0" height="29.6406" rx="2.5" ry="2.5" style="stroke:#181818;stroke-width:0.5;" width="48" x="258" y="792.6328"/><text fill="#000000" font-family="sans-serif" font-size="14" lengthAdjust="spacing" textLength="34" x="265" y="812.3066">:main</text><rect fill="#E2E2F0" height="29.6406" rx="2.5" ry="2.5" style="stroke:#181818;stroke-width:0.5;" width="139" x="478.5" y="50"/><text fill="#000000" font-family="sans-serif" font-size="14" lengthAdjust="spacing" textLength="125" x="485.5" y="69.6738">:DistributionNetwork</text><rect fill="#E2E2F0" height="29.6406" rx="2.5" ry="2.5" style="stroke:#181818;stroke-width:0.5;" width="139" x="478.5" y="792.6328"/><text fill="#000000" font-family="sans-serif" font-size="14" lengthAdjust="spacing" textLength="125" x="485.5" y="812.3066">:DistributionNetwork</text><rect fill="#E2E2F0" height="29.6406" rx="2.5" ry="2.5" style="stroke:#181818;stroke-width:0.5;" width="114" x="708" y="50"/><text fill="#000000" font-family="sans-serif" font-size="14" lengthAdjust="spacing" textLength="100" x="715" y="69.6738">:CommonGraph</text><rect fill="#E2E2F0" height="29.6406" rx="2.5" ry="2.5" style="stroke:#181818;stroke-width:0.5;" width="114" x="708" y="792.6328"/><text fill="#000000" font-family="sans-serif" font-size="14" lengthAdjust="spacing" textLength="100" x="715" y="812.3066">:CommonGraph</text><rect fill="#E2E2F0" height="29.6406" rx="2.5" ry="2.5" style="stroke:#181818;stroke-width:0.5;" width="47" x="832" y="50"/><text fill="#000000" font-family="sans-serif" font-size="14" lengthAdjust="spacing" textLength="33" x="839" y="69.6738">:User</text><rect fill="#E2E2F0" height="29.6406" rx="2.5" ry="2.5" style="stroke:#181818;stroke-width:0.5;" width="47" x="832" y="792.6328"/><text fill="#000000" font-family="sans-serif" font-size="14" lengthAdjust="spacing" textLength="33" x="839" y="812.3066">:User</text><rect fill="#E2E2F0" height="29.6406" rx="2.5" ry="2.5" style="stroke:#181818;stroke-width:0.5;" width="58" x="889" y="50"/><text fill="#000000" font-family="sans-serif" font-size="14" lengthAdjust="spacing" textLength="44" x="896" y="69.6738">:Cabaz</text><rect fill="#E2E2F0" height="29.6406" rx="2.5" ry="2.5" style="stroke:#181818;stroke-width:0.5;" width="58" x="889" y="792.6328"/><text fill="#000000" font-family="sans-serif" font-size="14" lengthAdjust="spacing" textLength="44" x="896" y="812.3066">:Cabaz</text><rect fill="#FFFFFF" height="684.9922" style="stroke:#181818;stroke-width:1.0;" width="10" x="21" y="90.6406"/><rect fill="#FFFFFF" height="43.0469" style="stroke:#181818;stroke-width:1.0;" width="10" x="277" y="111.1641"/><rect fill="#FFFFFF" height="43.0469" style="stroke:#181818;stroke-width:1.0;" width="10" x="277" y="197.2578"/><rect fill="#FFFFFF" height="492.2813" style="stroke:#181818;stroke-width:1.0;" width="10" x="277" y="283.3516"/><rect fill="#FFFFFF" height="435.2344" style="stroke:#181818;stroke-width:1.0;" width="10" x="543" y="311.875"/><rect fill="#FFFFFF" height="348.6641" style="stroke:#181818;stroke-width:1.0;" width="10" x="548" y="362.9219"/><rect fill="#FFFFFF" height="28" style="stroke:#181818;stroke-width:1.0;" width="10" x="553" y="683.5859"/><rect fill="#FFFFFF" height="30" style="stroke:#181818;stroke-width:1.0;" width="10" x="760" y="396.4453"/><rect fill="#FFFFFF" height="30" style="stroke:#181818;stroke-width:1.0;" width="10" x="850.5" y="478.4922"/><rect fill="#FFFFFF" height="30" style="stroke:#181818;stroke-width:1.0;" width="10" x="913" y="537.0156"/><rect fill="#FFFFFF" height="30" style="stroke:#181818;stroke-width:1.0;" width="10" x="913" y="595.5391"/><polygon fill="#181818" points="265,107.1641,275,111.1641,265,115.1641,269,111.1641" style="stroke:#181818;stroke-width:1.0;"/><line style="stroke:#181818;stroke-width:1.0;" x1="31" x2="271" y1="111.1641" y2="111.1641"/><text fill="#000000" font-family="sans-serif" font-size="13" font-weight="bold" lengthAdjust="spacing" textLength="7" x="38" y="106.4092">1</text><text fill="#000000" font-family="sans-serif" font-size="13" lengthAdjust="spacing" textLength="216" x="49" y="106.4092">requisita um ficheiro com estatísticas</text><polygon fill="#181818" points="42,150.2109,32,154.2109,42,158.2109,38,154.2109" style="stroke:#181818;stroke-width:1.0;"/><line style="stroke:#181818;stroke-width:1.0;stroke-dasharray:2.0,2.0;" x1="36" x2="281" y1="154.2109" y2="154.2109"/><text fill="#000000" font-family="sans-serif" font-size="13" font-weight="bold" lengthAdjust="spacing" textLength="7" x="48" y="142.1943">2</text><text fill="#000000" font-family="sans-serif" font-size="13" lengthAdjust="spacing" textLength="167" x="59" y="134.9326">pede o nome do ficheiro com</text><text fill="#000000" font-family="sans-serif" font-size="13" lengthAdjust="spacing" textLength="116" x="63" y="149.4561">a lista de expedição</text><polygon fill="#181818" points="265,193.2578,275,197.2578,265,201.2578,269,197.2578" style="stroke:#181818;stroke-width:1.0;"/><line style="stroke:#181818;stroke-width:1.0;" x1="31" x2="271" y1="197.2578" y2="197.2578"/><text fill="#000000" font-family="sans-serif" font-size="13" font-weight="bold" lengthAdjust="spacing" textLength="7" x="38" y="185.2412">3</text><text fill="#000000" font-family="sans-serif" font-size="13" lengthAdjust="spacing" textLength="164" x="49" y="177.9795">dá o nome do ficheiro com a</text><text fill="#000000" font-family="sans-serif" font-size="13" lengthAdjust="spacing" textLength="105" x="53" y="192.5029">lista de expedição</text><polygon fill="#181818" points="42,236.3047,32,240.3047,42,244.3047,38,240.3047" style="stroke:#181818;stroke-width:1.0;"/><line style="stroke:#181818;stroke-width:1.0;stroke-dasharray:2.0,2.0;" x1="36" x2="281" y1="240.3047" y2="240.3047"/><text fill="#000000" font-family="sans-serif" font-size="13" font-weight="bold" lengthAdjust="spacing" textLength="7" x="48" y="228.2881">4</text><text fill="#000000" font-family="sans-serif" font-size="13" lengthAdjust="spacing" textLength="193" x="59" y="221.0264">pede o nome do ficheiro onde vão</text><text fill="#000000" font-family="sans-serif" font-size="13" lengthAdjust="spacing" textLength="113" x="63" y="235.5498">ficar as estatísticas</text><polygon fill="#181818" points="265,279.3516,275,283.3516,265,287.3516,269,283.3516" style="stroke:#181818;stroke-width:1.0;"/><line style="stroke:#181818;stroke-width:1.0;" x1="31" x2="271" y1="283.3516" y2="283.3516"/><text fill="#000000" font-family="sans-serif" font-size="13" font-weight="bold" lengthAdjust="spacing" textLength="7" x="38" y="271.335">5</text><text fill="#000000" font-family="sans-serif" font-size="13" lengthAdjust="spacing" textLength="179" x="49" y="264.0732">dá o nome do ficheiro onde vão</text><text fill="#000000" font-family="sans-serif" font-size="13" lengthAdjust="spacing" textLength="113" x="53" y="278.5967">ficar as estatísticas</text><polygon fill="#181818" points="531,307.875,541,311.875,531,315.875,535,311.875" style="stroke:#181818;stroke-width:1.0;"/><line style="stroke:#181818;stroke-width:1.0;" x1="287" x2="537" y1="311.875" y2="311.875"/><text fill="#000000" font-family="sans-serif" font-size="13" font-weight="bold" lengthAdjust="spacing" textLength="7" x="294" y="307.1201">6</text><text fill="#000000" font-family="sans-serif" font-size="13" lengthAdjust="spacing" textLength="226" x="305" y="307.1201">estatisticasCabaz(inputFile, outputFile)</text><line style="stroke:#181818;stroke-width:1.0;" x1="553" x2="600" y1="349.9219" y2="349.9219"/><line style="stroke:#181818;stroke-width:1.0;" x1="600" x2="600" y1="349.9219" y2="362.9219"/><line style="stroke:#181818;stroke-width:1.0;" x1="559" x2="600" y1="362.9219" y2="362.9219"/><polygon fill="#181818" points="569,358.9219,559,362.9219,569,366.9219,565,362.9219" style="stroke:#181818;stroke-width:1.0;"/><text fill="#000000" font-family="sans-serif" font-size="13" font-weight="bold" lengthAdjust="spacing" textLength="7" x="565" y="337.9053">7</text><text fill="#000000" font-family="sans-serif" font-size="13" lengthAdjust="spacing" textLength="139" x="576" y="330.6436">estatisticasProdutorHub</text><text fill="#000000" font-family="sans-serif" font-size="13" lengthAdjust="spacing" textLength="166" x="576" y="345.167">(inputFile, outputFile, output)</text><polygon fill="#181818" points="748,392.4453,758,396.4453,748,400.4453,752,396.4453" style="stroke:#181818;stroke-width:1.0;"/><line style="stroke:#181818;stroke-width:1.0;" x1="558" x2="754" y1="396.4453" y2="396.4453"/><text fill="#000000" font-family="sans-serif" font-size="13" font-weight="bold" lengthAdjust="spacing" textLength="7" x="565" y="391.6904">8</text><text fill="#000000" font-family="sans-serif" font-size="13" lengthAdjust="spacing" textLength="52" x="576" y="391.6904">vertices()</text><path d="M468.5,441.4453 L541.5,441.4453 L541.5,447.9688 L531.5,457.9688 L468.5,457.9688 L468.5,441.4453 " fill="#EEEEEE" style="stroke:#000000;stroke-width:1.5;"/><rect fill="none" height="192.0938" style="stroke:#000000;stroke-width:1.5;" width="488.5" x="468.5" y="441.4453"/><text fill="#000000" font-family="sans-serif" font-size="13" font-weight="bold" lengthAdjust="spacing" textLength="28" x="483.5" y="454.2139">loop</text><text fill="#000000" font-family="sans-serif" font-size="11" font-weight="bold" lengthAdjust="spacing" textLength="120" x="556.5" y="453.4033">[(para cada produtor)]</text><polygon fill="#181818" points="838.5,474.4922,848.5,478.4922,838.5,482.4922,842.5,478.4922" style="stroke:#181818;stroke-width:1.0;"/><line style="stroke:#181818;stroke-width:1.0;" x1="558" x2="844.5" y1="478.4922" y2="478.4922"/><text fill="#000000" font-family="sans-serif" font-size="13" font-weight="bold" lengthAdjust="spacing" textLength="7" x="565" y="473.7373">9</text><text fill="#000000" font-family="sans-serif" font-size="13" lengthAdjust="spacing" textLength="63" x="576" y="473.7373">getCabaz()</text><polygon fill="#181818" points="901,533.0156,911,537.0156,901,541.0156,905,537.0156" style="stroke:#181818;stroke-width:1.0;"/><line style="stroke:#181818;stroke-width:1.0;" x1="558" x2="907" y1="537.0156" y2="537.0156"/><text fill="#000000" font-family="sans-serif" font-size="13" font-weight="bold" lengthAdjust="spacing" textLength="14" x="565" y="532.2607">10</text><text fill="#000000" font-family="sans-serif" font-size="13" lengthAdjust="spacing" textLength="45" x="583" y="532.2607">getDia()</text><polygon fill="#181818" points="901,591.5391,911,595.5391,901,599.5391,905,595.5391" style="stroke:#181818;stroke-width:1.0;"/><line style="stroke:#181818;stroke-width:1.0;" x1="558" x2="907" y1="595.5391" y2="595.5391"/><text fill="#000000" font-family="sans-serif" font-size="13" font-weight="bold" lengthAdjust="spacing" textLength="14" x="565" y="590.7842">11</text><text fill="#000000" font-family="sans-serif" font-size="13" lengthAdjust="spacing" textLength="78" x="583" y="590.7842">getProdutos()</text><line style="stroke:#181818;stroke-width:1.0;" x1="563" x2="605" y1="675.5859" y2="675.5859"/><line style="stroke:#181818;stroke-width:1.0;" x1="605" x2="605" y1="675.5859" y2="688.5859"/><line style="stroke:#181818;stroke-width:1.0;" x1="564" x2="605" y1="688.5859" y2="688.5859"/><polygon fill="#181818" points="574,684.5859,564,688.5859,574,692.5859,570,688.5859" style="stroke:#181818;stroke-width:1.0;"/><text fill="#000000" font-family="sans-serif" font-size="13" font-weight="bold" lengthAdjust="spacing" textLength="14" x="570" y="663.5693">12</text><text fill="#000000" font-family="sans-serif" font-size="13" lengthAdjust="spacing" textLength="80" x="588" y="656.3076">ficheiroOutput</text><text fill="#000000" font-family="sans-serif" font-size="13" lengthAdjust="spacing" textLength="170" x="588" y="670.8311">(outputFile, output.toString());</text><polygon fill="#181818" points="298,743.1094,288,747.1094,298,751.1094,294,747.1094" style="stroke:#181818;stroke-width:1.0;"/><line style="stroke:#181818;stroke-width:1.0;stroke-dasharray:2.0,2.0;" x1="292" x2="547" y1="747.1094" y2="747.1094"/><text fill="#000000" font-family="sans-serif" font-size="13" font-weight="bold" lengthAdjust="spacing" textLength="14" x="304" y="742.3545">13</text><text fill="#000000" font-family="sans-serif" font-size="13" lengthAdjust="spacing" textLength="97" x="322" y="742.3545">devolve o ficheiro</text><polygon fill="#181818" points="37,771.6328,27,775.6328,37,779.6328,33,775.6328" style="stroke:#181818;stroke-width:1.0;"/><line style="stroke:#181818;stroke-width:1.0;stroke-dasharray:2.0,2.0;" x1="31" x2="281" y1="775.6328" y2="775.6328"/><text fill="#000000" font-family="sans-serif" font-size="13" font-weight="bold" lengthAdjust="spacing" textLength="14" x="43" y="770.8779">14</text><text fill="#000000" font-family="sans-serif" font-size="13" lengthAdjust="spacing" textLength="97" x="61" y="770.8779">devolve o ficheiro</text><!--MD5=[e2a080d9266769441750c7551440bce5]
@startuml
actor "Client" as cli
participant ":main" as main
participant ":DistributionNetwork" as disNet
participant ":CommonGraph" as graph
participant ":User" as user
participant ":Cabaz" as cabaz

autonumber

activate cli

cli -> main: requisita um ficheiro com estatísticas
activate main
main - -> cli: pede o nome do ficheiro com \n a lista de expedição
deactivate main

cli -> main: dá o nome do ficheiro com a \n lista de expedição
activate main
main - -> cli: pede o nome do ficheiro onde vão \n ficar as estatísticas
deactivate main

cli -> main: dá o nome do ficheiro onde vão \n ficar as estatísticas
activate main
main -> disNet: estatisticasCabaz(inputFile, outputFile)

activate disNet
disNet -> disNet: estatisticasProdutorHub \n(inputFile, outputFile, output)
activate disNet

disNet -> graph : vertices()
activate graph
deactivate graph

loop (para cada produtor)

disNet -> user : getCabaz()
activate user
deactivate user

disNet -> cabaz : getDia()
activate cabaz
deactivate cabaz

disNet -> cabaz : getProdutos()
activate cabaz
deactivate cabaz

end

disNet -> disNet: ficheiroOutput \n(outputFile, output.toString());
activate disNet

deactivate disNet
deactivate disNet
disNet - -> main: devolve o ficheiro
deactivate disNet

main - -> cli: devolve o ficheiro

deactivate main

deactivate cli
@enduml

PlantUML version 1.2022.7(Mon Aug 22 18:01:30 WEST 2022)
(GPL source distribution)
Java Runtime: OpenJDK Runtime Environment
JVM: OpenJDK 64-Bit Server VM
Default Encoding: Cp1252
Language: pt
Country: PT
--></g></svg>