<?xml version="1.0" encoding="UTF-8" standalone="no"?><svg xmlns="http://www.w3.org/2000/svg" xmlns:xlink="http://www.w3.org/1999/xlink" contentStyleType="text/css" height="527px" preserveAspectRatio="none" style="width:540px;height:527px;background:#FFFFFF;" version="1.1" viewBox="0 0 540 527" width="540px" zoomAndPan="magnify"><defs/><g><!--MD5=[4520fda4e10d4d791ce48fe025810cd4]
class main--><g id="elem_main"><rect fill="#F1F1F1" height="63.6406" id="main" rx="2.5" ry="2.5" style="stroke:#181818;stroke-width:0.5;" width="75" x="232.5" y="7"/><ellipse cx="253.35" cy="23" fill="#ADD1B2" rx="11" ry="11" style="stroke:#181818;stroke-width:1.0;"/><path d="M256.1156,18.875 Q256.2719,18.6563 256.4594,18.5469 Q256.6469,18.4375 256.8656,18.4375 Q257.2406,18.4375 257.475,18.7031 Q257.7094,18.9531 257.7094,19.5625 L257.7094,21.0156 Q257.7094,21.625 257.475,21.8906 Q257.2406,22.1563 256.8656,22.1563 Q256.5219,22.1563 256.3188,21.9531 Q256.1156,21.7656 256.0063,21.25 Q255.9594,20.8906 255.7719,20.7031 Q255.4438,20.3281 254.8344,20.1094 Q254.225,19.8906 253.6,19.8906 Q252.8344,19.8906 252.1938,20.2188 Q251.5688,20.5469 251.0688,21.2969 Q250.5844,22.0469 250.5844,23.0781 L250.5844,24.1719 Q250.5844,25.4063 251.475,26.2344 Q252.3656,27.0469 253.9594,27.0469 Q254.8969,27.0469 255.5531,26.7969 Q255.9438,26.6406 256.3656,26.2031 Q256.6313,25.9375 256.7719,25.8594 Q256.9281,25.7813 257.1313,25.7813 Q257.4594,25.7813 257.7094,26.0469 Q257.975,26.2969 257.975,26.6406 Q257.975,26.9844 257.6313,27.3906 Q257.1313,27.9688 256.3344,28.2969 Q255.2563,28.75 253.9594,28.75 Q252.4438,28.75 251.2406,28.125 Q250.2563,27.625 249.5688,26.5625 Q248.8813,25.4844 248.8813,24.2031 L248.8813,23.0469 Q248.8813,21.7188 249.4906,20.5781 Q250.1156,19.4219 251.2094,18.8125 Q252.3031,18.1875 253.5375,18.1875 Q254.2719,18.1875 254.9125,18.3594 Q255.5688,18.5156 256.1156,18.875 Z " fill="#000000"/><text fill="#000000" font-family="sans-serif" font-size="14" lengthAdjust="spacing" textLength="30" x="268.65" y="27.8535">main</text><line style="stroke:#181818;stroke-width:0.5;" x1="233.5" x2="306.5" y1="39" y2="39"/><line style="stroke:#181818;stroke-width:0.5;" x1="233.5" x2="306.5" y1="47" y2="47"/><ellipse cx="243.5" cy="60.3203" fill="#84BE84" rx="3" ry="3" style="stroke:#038048;stroke-width:1.0;"/><text fill="#000000" font-family="sans-serif" font-size="14" lengthAdjust="spacing" textLength="49" x="252.5" y="63.6738">us311()</text></g><!--MD5=[474d34def3219da6650caeefce0800d4]
class DistibutionNetwork--><g id="elem_DistibutionNetwork"><rect fill="#F1F1F1" height="110.5625" id="DistibutionNetwork" rx="2.5" ry="2.5" style="stroke:#181818;stroke-width:0.5;" width="526" x="7" y="131"/><ellipse cx="207.75" cy="147" fill="#ADD1B2" rx="11" ry="11" style="stroke:#181818;stroke-width:1.0;"/><path d="M210.5156,142.875 Q210.6719,142.6563 210.8594,142.5469 Q211.0469,142.4375 211.2656,142.4375 Q211.6406,142.4375 211.875,142.7031 Q212.1094,142.9531 212.1094,143.5625 L212.1094,145.0156 Q212.1094,145.625 211.875,145.8906 Q211.6406,146.1563 211.2656,146.1563 Q210.9219,146.1563 210.7188,145.9531 Q210.5156,145.7656 210.4063,145.25 Q210.3594,144.8906 210.1719,144.7031 Q209.8438,144.3281 209.2344,144.1094 Q208.625,143.8906 208,143.8906 Q207.2344,143.8906 206.5938,144.2188 Q205.9688,144.5469 205.4688,145.2969 Q204.9844,146.0469 204.9844,147.0781 L204.9844,148.1719 Q204.9844,149.4063 205.875,150.2344 Q206.7656,151.0469 208.3594,151.0469 Q209.2969,151.0469 209.9531,150.7969 Q210.3438,150.6406 210.7656,150.2031 Q211.0313,149.9375 211.1719,149.8594 Q211.3281,149.7813 211.5313,149.7813 Q211.8594,149.7813 212.1094,150.0469 Q212.375,150.2969 212.375,150.6406 Q212.375,150.9844 212.0313,151.3906 Q211.5313,151.9688 210.7344,152.2969 Q209.6563,152.75 208.3594,152.75 Q206.8438,152.75 205.6406,152.125 Q204.6563,151.625 203.9688,150.5625 Q203.2813,149.4844 203.2813,148.2031 L203.2813,147.0469 Q203.2813,145.7188 203.8906,144.5781 Q204.5156,143.4219 205.6094,142.8125 Q206.7031,142.1875 207.9375,142.1875 Q208.6719,142.1875 209.3125,142.3594 Q209.9688,142.5156 210.5156,142.875 Z " fill="#000000"/><text fill="#000000" font-family="sans-serif" font-size="14" lengthAdjust="spacing" textLength="116" x="228.25" y="151.8535">DistibutionNetwork</text><line style="stroke:#181818;stroke-width:0.5;" x1="8" x2="532" y1="163" y2="163"/><rect fill="none" height="6" style="stroke:#C82930;stroke-width:1.0;" width="6" x="15" y="173.3203"/><text fill="#000000" font-family="sans-serif" font-size="14" lengthAdjust="spacing" textLength="89" x="27" y="179.6738">networkGraph</text><line style="stroke:#181818;stroke-width:0.5;" x1="8" x2="532" y1="186.6406" y2="186.6406"/><ellipse cx="18" cy="199.9609" fill="#84BE84" rx="3" ry="3" style="stroke:#038048;stroke-width:1.0;"/><text fill="#000000" font-family="sans-serif" font-size="14" lengthAdjust="spacing" textLength="500" x="27" y="203.3145">estatisticasProdutorHub(String inputFile, String outputFile, StringBuilder output)</text><text fill="#000000" font-family="sans-serif" font-size="14" lengthAdjust="spacing" textLength="327" x="27" y="218.9551">estatisticasCabaz(String inputFile, String outputFile)</text><ellipse cx="18" cy="231.2422" fill="#84BE84" rx="3" ry="3" style="stroke:#038048;stroke-width:1.0;"/><text fill="#000000" font-family="sans-serif" font-size="14" lengthAdjust="spacing" textLength="282" x="27" y="234.5957">ficheiroOutput(String filename, String output)</text></g><!--MD5=[ef63e85e32976ed6c3ca2a05ce10893d]
class CommonGraph--><g id="elem_CommonGraph"><rect codeLine="21" fill="#F1F1F1" height="63.6406" id="CommonGraph" rx="2.5" ry="2.5" style="stroke:#181818;stroke-width:0.5;" width="128" x="89" y="309.5"/><ellipse cx="104" cy="325.5" fill="#A9DCDF" rx="11" ry="11" style="stroke:#181818;stroke-width:1.0;"/><path d="M106.1875,327.2656 L102.0469,327.2656 L101.625,328.2969 L102.0469,328.2969 Q102.6563,328.2969 102.9219,328.5313 Q103.1875,328.7656 103.1875,329.1563 Q103.1875,329.5313 102.9219,329.7656 Q102.6563,330 102.0469,330 L99.75,330 Q99.1406,330 98.8906,329.7656 Q98.625,329.5313 98.625,329.1406 Q98.625,328.7656 98.9063,328.5313 Q99.1719,328.2813 99.7969,328.2969 L102.4688,321.6406 L101.3594,321.6406 Q100.75,321.6406 100.4844,321.4063 Q100.2188,321.1719 100.2188,320.7813 Q100.2188,320.4063 100.4844,320.1719 Q100.75,319.9375 101.3594,319.9375 L105.0313,319.9375 L108.4219,328.2969 Q109.0156,328.2969 109.2031,328.4375 Q109.5938,328.7031 109.5938,329.1563 Q109.5938,329.5313 109.3281,329.7656 Q109.0781,330 108.4688,330 L106.1719,330 Q105.5625,330 105.2969,329.7656 Q105.0313,329.5313 105.0313,329.1406 Q105.0313,328.7656 105.2969,328.5313 Q105.5625,328.2969 106.1719,328.2969 L106.5938,328.2969 L106.1875,327.2656 Z M105.4688,325.5625 L104.1094,322.1875 L102.7344,325.5625 L105.4688,325.5625 Z " fill="#000000"/><text fill="#000000" font-family="sans-serif" font-size="14" font-style="italic" lengthAdjust="spacing" textLength="96" x="118" y="330.3535">CommonGraph</text><line style="stroke:#181818;stroke-width:0.5;" x1="90" x2="216" y1="341.5" y2="341.5"/><line style="stroke:#181818;stroke-width:0.5;" x1="90" x2="216" y1="349.5" y2="349.5"/><ellipse cx="100" cy="362.8203" fill="#84BE84" rx="3" ry="3" style="stroke:#038048;stroke-width:1.0;"/><text fill="#000000" font-family="sans-serif" font-size="14" lengthAdjust="spacing" textLength="59" x="109" y="366.1738">vertices()</text></g><!--MD5=[b48e701c93ce5e3e09150936ffaa07a1]
class Cabaz--><g id="elem_Cabaz"><rect fill="#F1F1F1" height="79.2813" id="Cabaz" rx="2.5" ry="2.5" style="stroke:#181818;stroke-width:0.5;" width="113" x="267.5" y="441"/><ellipse cx="300.95" cy="457" fill="#ADD1B2" rx="11" ry="11" style="stroke:#181818;stroke-width:1.0;"/><path d="M303.7156,452.875 Q303.8719,452.6563 304.0594,452.5469 Q304.2469,452.4375 304.4656,452.4375 Q304.8406,452.4375 305.075,452.7031 Q305.3094,452.9531 305.3094,453.5625 L305.3094,455.0156 Q305.3094,455.625 305.075,455.8906 Q304.8406,456.1563 304.4656,456.1563 Q304.1219,456.1563 303.9188,455.9531 Q303.7156,455.7656 303.6063,455.25 Q303.5594,454.8906 303.3719,454.7031 Q303.0438,454.3281 302.4344,454.1094 Q301.825,453.8906 301.2,453.8906 Q300.4344,453.8906 299.7938,454.2188 Q299.1688,454.5469 298.6688,455.2969 Q298.1844,456.0469 298.1844,457.0781 L298.1844,458.1719 Q298.1844,459.4063 299.075,460.2344 Q299.9656,461.0469 301.5594,461.0469 Q302.4969,461.0469 303.1531,460.7969 Q303.5438,460.6406 303.9656,460.2031 Q304.2313,459.9375 304.3719,459.8594 Q304.5281,459.7813 304.7313,459.7813 Q305.0594,459.7813 305.3094,460.0469 Q305.575,460.2969 305.575,460.6406 Q305.575,460.9844 305.2313,461.3906 Q304.7313,461.9688 303.9344,462.2969 Q302.8563,462.75 301.5594,462.75 Q300.0438,462.75 298.8406,462.125 Q297.8563,461.625 297.1688,460.5625 Q296.4813,459.4844 296.4813,458.2031 L296.4813,457.0469 Q296.4813,455.7188 297.0906,454.5781 Q297.7156,453.4219 298.8094,452.8125 Q299.9031,452.1875 301.1375,452.1875 Q301.8719,452.1875 302.5125,452.3594 Q303.1688,452.5156 303.7156,452.875 Z " fill="#000000"/><text fill="#000000" font-family="sans-serif" font-size="14" lengthAdjust="spacing" textLength="40" x="319.05" y="461.8535">Cabaz</text><line style="stroke:#181818;stroke-width:0.5;" x1="268.5" x2="379.5" y1="473" y2="473"/><line style="stroke:#181818;stroke-width:0.5;" x1="268.5" x2="379.5" y1="481" y2="481"/><ellipse cx="278.5" cy="494.3203" fill="#84BE84" rx="3" ry="3" style="stroke:#038048;stroke-width:1.0;"/><text fill="#000000" font-family="sans-serif" font-size="14" lengthAdjust="spacing" textLength="51" x="287.5" y="497.6738">getDia()</text><ellipse cx="278.5" cy="509.9609" fill="#84BE84" rx="3" ry="3" style="stroke:#038048;stroke-width:1.0;"/><text fill="#000000" font-family="sans-serif" font-size="14" lengthAdjust="spacing" textLength="87" x="287.5" y="513.3145">getProdutos()</text></g><!--MD5=[3fd616f346a44cd59a91eb10b19e157c]
class User--><g id="elem_User"><rect fill="#F1F1F1" height="79.2813" id="User" rx="2.5" ry="2.5" style="stroke:#181818;stroke-width:0.5;" width="111" x="323.5" y="302"/><ellipse cx="361" cy="318" fill="#ADD1B2" rx="11" ry="11" style="stroke:#181818;stroke-width:1.0;"/><path d="M363.7656,313.875 Q363.9219,313.6563 364.1094,313.5469 Q364.2969,313.4375 364.5156,313.4375 Q364.8906,313.4375 365.125,313.7031 Q365.3594,313.9531 365.3594,314.5625 L365.3594,316.0156 Q365.3594,316.625 365.125,316.8906 Q364.8906,317.1563 364.5156,317.1563 Q364.1719,317.1563 363.9688,316.9531 Q363.7656,316.7656 363.6563,316.25 Q363.6094,315.8906 363.4219,315.7031 Q363.0938,315.3281 362.4844,315.1094 Q361.875,314.8906 361.25,314.8906 Q360.4844,314.8906 359.8438,315.2188 Q359.2188,315.5469 358.7188,316.2969 Q358.2344,317.0469 358.2344,318.0781 L358.2344,319.1719 Q358.2344,320.4063 359.125,321.2344 Q360.0156,322.0469 361.6094,322.0469 Q362.5469,322.0469 363.2031,321.7969 Q363.5938,321.6406 364.0156,321.2031 Q364.2813,320.9375 364.4219,320.8594 Q364.5781,320.7813 364.7813,320.7813 Q365.1094,320.7813 365.3594,321.0469 Q365.625,321.2969 365.625,321.6406 Q365.625,321.9844 365.2813,322.3906 Q364.7813,322.9688 363.9844,323.2969 Q362.9063,323.75 361.6094,323.75 Q360.0938,323.75 358.8906,323.125 Q357.9063,322.625 357.2188,321.5625 Q356.5313,320.4844 356.5313,319.2031 L356.5313,318.0469 Q356.5313,316.7188 357.1406,315.5781 Q357.7656,314.4219 358.8594,313.8125 Q359.9531,313.1875 361.1875,313.1875 Q361.9219,313.1875 362.5625,313.3594 Q363.2188,313.5156 363.7656,313.875 Z " fill="#000000"/><text fill="#000000" font-family="sans-serif" font-size="14" lengthAdjust="spacing" textLength="29" x="380" y="322.8535">User</text><line style="stroke:#181818;stroke-width:0.5;" x1="324.5" x2="433.5" y1="334" y2="334"/><line style="stroke:#181818;stroke-width:0.5;" x1="324.5" x2="433.5" y1="342" y2="342"/><ellipse cx="334.5" cy="355.3203" fill="#84BE84" rx="3" ry="3" style="stroke:#038048;stroke-width:1.0;"/><text fill="#000000" font-family="sans-serif" font-size="14" lengthAdjust="spacing" textLength="70" x="343.5" y="358.6738">getCabaz()</text><ellipse cx="334.5" cy="370.9609" fill="#84BE84" rx="3" ry="3" style="stroke:#038048;stroke-width:1.0;"/><text fill="#000000" font-family="sans-serif" font-size="14" lengthAdjust="spacing" textLength="85" x="343.5" y="374.3145">getCodUser()</text></g><!--MD5=[caf8bf660ca1ce7d7b83c7cda537838a]
link main to DistibutionNetwork--><g id="link_main_DistibutionNetwork"><path codeLine="1" d="M270,71.21 C270,87.09 270,106.93 270,125.61 " fill="none" id="main-to-DistibutionNetwork" style="stroke:#181818;stroke-width:1.0;stroke-dasharray:7.0,7.0;"/><polygon fill="#181818" points="270,130.84,274,121.84,270,125.84,266,121.84,270,130.84" style="stroke:#181818;stroke-width:1.0;"/></g><!--MD5=[a83154ed44f87bb7944e63d65f89990c]
link DistibutionNetwork to CommonGraph--><g id="link_DistibutionNetwork_CommonGraph"><path codeLine="2" d="M228.09,242.3 C212.12,263.19 194.35,286.43 180.11,305.05 " fill="none" id="DistibutionNetwork-to-CommonGraph" style="stroke:#181818;stroke-width:1.0;stroke-dasharray:7.0,7.0;"/><polygon fill="#181818" points="176.94,309.2,185.5889,304.4887,179.981,305.231,179.2386,299.6231,176.94,309.2" style="stroke:#181818;stroke-width:1.0;"/></g><!--MD5=[81b4e0d8c8605ae8177ef71486f759b7]
link DistibutionNetwork to Cabaz--><g id="link_DistibutionNetwork_Cabaz"><path codeLine="3" d="M280.09,242.08 C290.42,297.94 306.28,383.66 315.84,435.38 " fill="none" id="DistibutionNetwork-to-Cabaz" style="stroke:#181818;stroke-width:1.0;stroke-dasharray:7.0,7.0;"/><polygon fill="#181818" points="316.8,440.59,319.0913,431.0114,315.888,435.6739,311.2255,432.4706,316.8,440.59" style="stroke:#181818;stroke-width:1.0;"/></g><!--MD5=[8db25566b819ee7825a7bff82ad9eac2]
link DistibutionNetwork to User--><g id="link_DistibutionNetwork_User"><path codeLine="4" d="M309.04,242.3 C322,260.49 336.22,280.45 348.44,297.6 " fill="none" id="DistibutionNetwork-to-User" style="stroke:#181818;stroke-width:1.0;stroke-dasharray:7.0,7.0;"/><polygon fill="#181818" points="351.5,301.9,349.5366,292.2488,348.5992,297.8275,343.0206,296.8901,351.5,301.9" style="stroke:#181818;stroke-width:1.0;"/></g><!--MD5=[f70000acc8e75d57a06335a5fc2fe98c]
link User to Cabaz--><g id="link_User_Cabaz"><path codeLine="5" d="M363.53,381.03 C356.68,398.1 348.58,418.27 341.51,435.89 " fill="none" id="User-to-Cabaz" style="stroke:#181818;stroke-width:1.0;stroke-dasharray:7.0,7.0;"/><polygon fill="#181818" points="339.54,440.79,346.5964,433.9193,341.397,436.1476,339.1686,430.9481,339.54,440.79" style="stroke:#181818;stroke-width:1.0;"/></g><!--MD5=[ed0ba17ea59cfa34c3fd771f3ca41c3e]
@startuml
main ..> DistibutionNetwork
DistibutionNetwork ..> CommonGraph
DistibutionNetwork ..> Cabaz
DistibutionNetwork ..> User
User ..> Cabaz


main : +us311()

DistibutionNetwork : -networkGraph
DistibutionNetwork : +estatisticasProdutorHub(String inputFile, String outputFile, StringBuilder output)
DistibutionNetwork : estatisticasCabaz(String inputFile, String outputFile)
DistibutionNetwork : +ficheiroOutput(String filename, String output)

User : +getCabaz()
User : +getCodUser()

Cabaz : +getDia()
Cabaz : +getProdutos()

abstract class CommonGraph{
+vertices()
}

@enduml

PlantUML version 1.2022.7(Mon Aug 22 18:01:30 WEST 2022)
(GPL source distribution)
Java Runtime: OpenJDK Runtime Environment
JVM: OpenJDK 64-Bit Server VM
Default Encoding: Cp1252
Language: pt
Country: PT
--></g></svg>