<?xml version="1.0" encoding="UTF-8" standalone="no"?><svg xmlns="http://www.w3.org/2000/svg" xmlns:xlink="http://www.w3.org/1999/xlink" contentStyleType="text/css" height="159px" preserveAspectRatio="none" style="width:971px;height:159px;background:#FFFFFF;" version="1.1" viewBox="0 0 971 159" width="971px" zoomAndPan="magnify"><defs/><g><!--MD5=[b48e701c93ce5e3e09150936ffaa07a1]
class Cabaz--><g id="elem_Cabaz"><rect codeLine="14" fill="#F1F1F1" height="71.2813" id="Cabaz" rx="2.5" ry="2.5" style="stroke:#181818;stroke-width:0.5;" width="73" x="219" y="52.5"/><ellipse cx="234.45" cy="68.5" fill="#ADD1B2" rx="11" ry="11" style="stroke:#181818;stroke-width:1.0;"/><path d="M237.2156,64.375 Q237.3719,64.1563 237.5594,64.0469 Q237.7469,63.9375 237.9656,63.9375 Q238.3406,63.9375 238.575,64.2031 Q238.8094,64.4531 238.8094,65.0625 L238.8094,66.5156 Q238.8094,67.125 238.575,67.3906 Q238.3406,67.6563 237.9656,67.6563 Q237.6219,67.6563 237.4188,67.4531 Q237.2156,67.2656 237.1063,66.75 Q237.0594,66.3906 236.8719,66.2031 Q236.5438,65.8281 235.9344,65.6094 Q235.325,65.3906 234.7,65.3906 Q233.9344,65.3906 233.2938,65.7188 Q232.6688,66.0469 232.1688,66.7969 Q231.6844,67.5469 231.6844,68.5781 L231.6844,69.6719 Q231.6844,70.9063 232.575,71.7344 Q233.4656,72.5469 235.0594,72.5469 Q235.9969,72.5469 236.6531,72.2969 Q237.0438,72.1406 237.4656,71.7031 Q237.7313,71.4375 237.8719,71.3594 Q238.0281,71.2813 238.2313,71.2813 Q238.5594,71.2813 238.8094,71.5469 Q239.075,71.7969 239.075,72.1406 Q239.075,72.4844 238.7313,72.8906 Q238.2313,73.4688 237.4344,73.7969 Q236.3563,74.25 235.0594,74.25 Q233.5438,74.25 232.3406,73.625 Q231.3563,73.125 230.6688,72.0625 Q229.9813,70.9844 229.9813,69.7031 L229.9813,68.5469 Q229.9813,67.2188 230.5906,66.0781 Q231.2156,64.9219 232.3094,64.3125 Q233.4031,63.6875 234.6375,63.6875 Q235.3719,63.6875 236.0125,63.8594 Q236.6688,64.0156 237.2156,64.375 Z " fill="#000000"/><text fill="#000000" font-family="sans-serif" font-size="14" lengthAdjust="spacing" textLength="40" x="248.55" y="73.3535">Cabaz</text><line style="stroke:#181818;stroke-width:0.5;" x1="220" x2="291" y1="84.5" y2="84.5"/><text fill="#000000" font-family="sans-serif" font-size="14" lengthAdjust="spacing" textLength="24" x="225" y="101.1738">-dia</text><text fill="#000000" font-family="sans-serif" font-size="14" lengthAdjust="spacing" textLength="61" x="225" y="116.8145">-produtos</text></g><!--MD5=[20a748d5ee336a9a91751b0a3d4f0beb]
class Cliente--><g id="elem_Cliente"><rect codeLine="19" fill="#F1F1F1" height="40" id="Cliente" rx="2.5" ry="2.5" style="stroke:#181818;stroke-width:0.5;" width="76" x="13" y="7"/><ellipse cx="28" cy="23" fill="#ADD1B2" rx="11" ry="11" style="stroke:#181818;stroke-width:1.0;"/><path d="M30.7656,18.875 Q30.9219,18.6563 31.1094,18.5469 Q31.2969,18.4375 31.5156,18.4375 Q31.8906,18.4375 32.125,18.7031 Q32.3594,18.9531 32.3594,19.5625 L32.3594,21.0156 Q32.3594,21.625 32.125,21.8906 Q31.8906,22.1563 31.5156,22.1563 Q31.1719,22.1563 30.9688,21.9531 Q30.7656,21.7656 30.6563,21.25 Q30.6094,20.8906 30.4219,20.7031 Q30.0938,20.3281 29.4844,20.1094 Q28.875,19.8906 28.25,19.8906 Q27.4844,19.8906 26.8438,20.2188 Q26.2188,20.5469 25.7188,21.2969 Q25.2344,22.0469 25.2344,23.0781 L25.2344,24.1719 Q25.2344,25.4063 26.125,26.2344 Q27.0156,27.0469 28.6094,27.0469 Q29.5469,27.0469 30.2031,26.7969 Q30.5938,26.6406 31.0156,26.2031 Q31.2813,25.9375 31.4219,25.8594 Q31.5781,25.7813 31.7813,25.7813 Q32.1094,25.7813 32.3594,26.0469 Q32.625,26.2969 32.625,26.6406 Q32.625,26.9844 32.2813,27.3906 Q31.7813,27.9688 30.9844,28.2969 Q29.9063,28.75 28.6094,28.75 Q27.0938,28.75 25.8906,28.125 Q24.9063,27.625 24.2188,26.5625 Q23.5313,25.4844 23.5313,24.2031 L23.5313,23.0469 Q23.5313,21.7188 24.1406,20.5781 Q24.7656,19.4219 25.8594,18.8125 Q26.9531,18.1875 28.1875,18.1875 Q28.9219,18.1875 29.5625,18.3594 Q30.2188,18.5156 30.7656,18.875 Z " fill="#000000"/><text fill="#000000" font-family="sans-serif" font-size="14" lengthAdjust="spacing" textLength="44" x="42" y="27.8535">Cliente</text><line style="stroke:#181818;stroke-width:0.5;" x1="14" x2="88" y1="39" y2="39"/></g><!--MD5=[7d0e5ddd73bd8fec86b8967827845935]
class Empresa--><g id="elem_Empresa"><rect codeLine="21" fill="#F1F1F1" height="55.6406" id="Empresa" rx="2.5" ry="2.5" style="stroke:#181818;stroke-width:0.5;" width="88" x="7" y="97"/><ellipse cx="22" cy="113" fill="#ADD1B2" rx="11" ry="11" style="stroke:#181818;stroke-width:1.0;"/><path d="M24.7656,108.875 Q24.9219,108.6563 25.1094,108.5469 Q25.2969,108.4375 25.5156,108.4375 Q25.8906,108.4375 26.125,108.7031 Q26.3594,108.9531 26.3594,109.5625 L26.3594,111.0156 Q26.3594,111.625 26.125,111.8906 Q25.8906,112.1563 25.5156,112.1563 Q25.1719,112.1563 24.9688,111.9531 Q24.7656,111.7656 24.6563,111.25 Q24.6094,110.8906 24.4219,110.7031 Q24.0938,110.3281 23.4844,110.1094 Q22.875,109.8906 22.25,109.8906 Q21.4844,109.8906 20.8438,110.2188 Q20.2188,110.5469 19.7188,111.2969 Q19.2344,112.0469 19.2344,113.0781 L19.2344,114.1719 Q19.2344,115.4063 20.125,116.2344 Q21.0156,117.0469 22.6094,117.0469 Q23.5469,117.0469 24.2031,116.7969 Q24.5938,116.6406 25.0156,116.2031 Q25.2813,115.9375 25.4219,115.8594 Q25.5781,115.7813 25.7813,115.7813 Q26.1094,115.7813 26.3594,116.0469 Q26.625,116.2969 26.625,116.6406 Q26.625,116.9844 26.2813,117.3906 Q25.7813,117.9688 24.9844,118.2969 Q23.9063,118.75 22.6094,118.75 Q21.0938,118.75 19.8906,118.125 Q18.9063,117.625 18.2188,116.5625 Q17.5313,115.4844 17.5313,114.2031 L17.5313,113.0469 Q17.5313,111.7188 18.1406,110.5781 Q18.7656,109.4219 19.8594,108.8125 Q20.9531,108.1875 22.1875,108.1875 Q22.9219,108.1875 23.5625,108.3594 Q24.2188,108.5156 24.7656,108.875 Z " fill="#000000"/><text fill="#000000" font-family="sans-serif" font-size="14" lengthAdjust="spacing" textLength="56" x="36" y="117.8535">Empresa</text><line style="stroke:#181818;stroke-width:0.5;" x1="8" x2="94" y1="129" y2="129"/><text fill="#000000" font-family="sans-serif" font-size="14" lengthAdjust="spacing" textLength="29" x="13" y="145.6738">-hub</text></g><!--MD5=[53d7157415ddfdf8a565a9d974d385cc]
class Localização--><g id="elem_Localização"><rect codeLine="25" fill="#F1F1F1" height="86.9219" id="Localização" rx="2.5" ry="2.5" style="stroke:#181818;stroke-width:0.5;" width="106" x="858" y="44.5"/><ellipse cx="873" cy="60.5" fill="#ADD1B2" rx="11" ry="11" style="stroke:#181818;stroke-width:1.0;"/><path d="M875.7656,56.375 Q875.9219,56.1563 876.1094,56.0469 Q876.2969,55.9375 876.5156,55.9375 Q876.8906,55.9375 877.125,56.2031 Q877.3594,56.4531 877.3594,57.0625 L877.3594,58.5156 Q877.3594,59.125 877.125,59.3906 Q876.8906,59.6563 876.5156,59.6563 Q876.1719,59.6563 875.9688,59.4531 Q875.7656,59.2656 875.6563,58.75 Q875.6094,58.3906 875.4219,58.2031 Q875.0938,57.8281 874.4844,57.6094 Q873.875,57.3906 873.25,57.3906 Q872.4844,57.3906 871.8438,57.7188 Q871.2188,58.0469 870.7188,58.7969 Q870.2344,59.5469 870.2344,60.5781 L870.2344,61.6719 Q870.2344,62.9063 871.125,63.7344 Q872.0156,64.5469 873.6094,64.5469 Q874.5469,64.5469 875.2031,64.2969 Q875.5938,64.1406 876.0156,63.7031 Q876.2813,63.4375 876.4219,63.3594 Q876.5781,63.2813 876.7813,63.2813 Q877.1094,63.2813 877.3594,63.5469 Q877.625,63.7969 877.625,64.1406 Q877.625,64.4844 877.2813,64.8906 Q876.7813,65.4688 875.9844,65.7969 Q874.9063,66.25 873.6094,66.25 Q872.0938,66.25 870.8906,65.625 Q869.9063,65.125 869.2188,64.0625 Q868.5313,62.9844 868.5313,61.7031 L868.5313,60.5469 Q868.5313,59.2188 869.1406,58.0781 Q869.7656,56.9219 870.8594,56.3125 Q871.9531,55.6875 873.1875,55.6875 Q873.9219,55.6875 874.5625,55.8594 Q875.2188,56.0156 875.7656,56.375 Z " fill="#000000"/><text fill="#000000" font-family="sans-serif" font-size="14" lengthAdjust="spacing" textLength="74" x="887" y="65.3535">Localização</text><line style="stroke:#181818;stroke-width:0.5;" x1="859" x2="963" y1="76.5" y2="76.5"/><text fill="#000000" font-family="sans-serif" font-size="14" lengthAdjust="spacing" textLength="51" x="864" y="93.1738">-codLoc</text><text fill="#000000" font-family="sans-serif" font-size="14" lengthAdjust="spacing" textLength="51" x="864" y="108.8145">-latitude</text><text fill="#000000" font-family="sans-serif" font-size="14" lengthAdjust="spacing" textLength="63" x="864" y="124.4551">-longitude</text></g><!--MD5=[e66145d266c407ffaa9a1f58108bb271]
class Produtor--><g id="elem_Produtor"><rect codeLine="31" fill="#F1F1F1" height="40" id="Produtor" rx="2.5" ry="2.5" style="stroke:#181818;stroke-width:0.5;" width="87" x="452" y="68"/><ellipse cx="467" cy="84" fill="#ADD1B2" rx="11" ry="11" style="stroke:#181818;stroke-width:1.0;"/><path d="M469.7656,79.875 Q469.9219,79.6563 470.1094,79.5469 Q470.2969,79.4375 470.5156,79.4375 Q470.8906,79.4375 471.125,79.7031 Q471.3594,79.9531 471.3594,80.5625 L471.3594,82.0156 Q471.3594,82.625 471.125,82.8906 Q470.8906,83.1563 470.5156,83.1563 Q470.1719,83.1563 469.9688,82.9531 Q469.7656,82.7656 469.6563,82.25 Q469.6094,81.8906 469.4219,81.7031 Q469.0938,81.3281 468.4844,81.1094 Q467.875,80.8906 467.25,80.8906 Q466.4844,80.8906 465.8438,81.2188 Q465.2188,81.5469 464.7188,82.2969 Q464.2344,83.0469 464.2344,84.0781 L464.2344,85.1719 Q464.2344,86.4063 465.125,87.2344 Q466.0156,88.0469 467.6094,88.0469 Q468.5469,88.0469 469.2031,87.7969 Q469.5938,87.6406 470.0156,87.2031 Q470.2813,86.9375 470.4219,86.8594 Q470.5781,86.7813 470.7813,86.7813 Q471.1094,86.7813 471.3594,87.0469 Q471.625,87.2969 471.625,87.6406 Q471.625,87.9844 471.2813,88.3906 Q470.7813,88.9688 469.9844,89.2969 Q468.9063,89.75 467.6094,89.75 Q466.0938,89.75 464.8906,89.125 Q463.9063,88.625 463.2188,87.5625 Q462.5313,86.4844 462.5313,85.2031 L462.5313,84.0469 Q462.5313,82.7188 463.1406,81.5781 Q463.7656,80.4219 464.8594,79.8125 Q465.9531,79.1875 467.1875,79.1875 Q467.9219,79.1875 468.5625,79.3594 Q469.2188,79.5156 469.7656,79.875 Z " fill="#000000"/><text fill="#000000" font-family="sans-serif" font-size="14" lengthAdjust="spacing" textLength="55" x="481" y="88.8535">Produtor</text><line style="stroke:#181818;stroke-width:0.5;" x1="453" x2="538" y1="100" y2="100"/></g><!--MD5=[5dd1d6732c071e710b9290b531f2fa3b]
class Utilizador--><g id="elem_Utilizador"><rect codeLine="33" fill="#F1F1F1" height="55.6406" id="Utilizador" rx="2.5" ry="2.5" style="stroke:#181818;stroke-width:0.5;" width="89" x="643" y="60"/><ellipse cx="658" cy="76" fill="#ADD1B2" rx="11" ry="11" style="stroke:#181818;stroke-width:1.0;"/><path d="M660.7656,71.875 Q660.9219,71.6563 661.1094,71.5469 Q661.2969,71.4375 661.5156,71.4375 Q661.8906,71.4375 662.125,71.7031 Q662.3594,71.9531 662.3594,72.5625 L662.3594,74.0156 Q662.3594,74.625 662.125,74.8906 Q661.8906,75.1563 661.5156,75.1563 Q661.1719,75.1563 660.9688,74.9531 Q660.7656,74.7656 660.6563,74.25 Q660.6094,73.8906 660.4219,73.7031 Q660.0938,73.3281 659.4844,73.1094 Q658.875,72.8906 658.25,72.8906 Q657.4844,72.8906 656.8438,73.2188 Q656.2188,73.5469 655.7188,74.2969 Q655.2344,75.0469 655.2344,76.0781 L655.2344,77.1719 Q655.2344,78.4063 656.125,79.2344 Q657.0156,80.0469 658.6094,80.0469 Q659.5469,80.0469 660.2031,79.7969 Q660.5938,79.6406 661.0156,79.2031 Q661.2813,78.9375 661.4219,78.8594 Q661.5781,78.7813 661.7813,78.7813 Q662.1094,78.7813 662.3594,79.0469 Q662.625,79.2969 662.625,79.6406 Q662.625,79.9844 662.2813,80.3906 Q661.7813,80.9688 660.9844,81.2969 Q659.9063,81.75 658.6094,81.75 Q657.0938,81.75 655.8906,81.125 Q654.9063,80.625 654.2188,79.5625 Q653.5313,78.4844 653.5313,77.2031 L653.5313,76.0469 Q653.5313,74.7188 654.1406,73.5781 Q654.7656,72.4219 655.8594,71.8125 Q656.9531,71.1875 658.1875,71.1875 Q658.9219,71.1875 659.5625,71.3594 Q660.2188,71.5156 660.7656,71.875 Z " fill="#000000"/><text fill="#000000" font-family="sans-serif" font-size="14" lengthAdjust="spacing" textLength="57" x="672" y="80.8535">Utilizador</text><line style="stroke:#181818;stroke-width:0.5;" x1="644" x2="731" y1="92" y2="92"/><text fill="#000000" font-family="sans-serif" font-size="14" lengthAdjust="spacing" textLength="57" x="649" y="108.6738">-codUser</text></g><!--MD5=[4c1936c4fd4a03709f7259b7fbb7e6bf]
link Cliente to Cabaz--><g id="link_Cliente_Cabaz"><path codeLine="37" d="M89.14,38.19 C126.14,49.33 182.53,66.32 218.95,77.29 " fill="none" id="Cliente-Cabaz" style="stroke:#181818;stroke-width:1.0;"/><polygon fill="#000000" points="134.7875,44.7038,126.9744,39.281,125.2792,44.9091,134.7875,44.7038" style="stroke:#000000;stroke-width:1.0;"/><text fill="#000000" font-family="sans-serif" font-size="13" lengthAdjust="spacing" textLength="49" x="139" y="47.7686">requisita</text><text fill="#000000" font-family="sans-serif" font-size="13" lengthAdjust="spacing" textLength="7" x="97.0776" y="53.4759">1</text><text fill="#000000" font-family="sans-serif" font-size="13" lengthAdjust="spacing" textLength="5" x="205.8959" y="88.3183">*</text></g><!--MD5=[194364bf2201eef9e4674d21c9215edc]
link Empresa to Cabaz--><g id="link_Empresa_Cabaz"><path codeLine="38" d="M95.05,119.39 C122.13,115.61 157.73,110.2 189,104 C198.76,102.06 209.26,99.65 218.93,97.29 " fill="none" id="Empresa-Cabaz" style="stroke:#181818;stroke-width:1.0;"/><polygon fill="#000000" points="134.9223,95.3836,125.5016,94.0789,126.5339,99.8654,134.9223,95.3836" style="stroke:#000000;stroke-width:1.0;"/><text fill="#000000" font-family="sans-serif" font-size="13" lengthAdjust="spacing" textLength="49" x="139" y="100.7686">requisita</text><text fill="#000000" font-family="sans-serif" font-size="13" lengthAdjust="spacing" textLength="7" x="102.9255" y="115.1431">1</text><text fill="#000000" font-family="sans-serif" font-size="13" lengthAdjust="spacing" textLength="5" x="205.8718" y="112.4433">*</text></g><!--MD5=[d2f5ed8a2686b7198f847ee0cf00c8fd]
link Cabaz to Produtor--><g id="link_Cabaz_Produtor"><path codeLine="39" d="M292.13,88 C334.79,88 406.19,88 451.77,88 " fill="none" id="Cabaz-Produtor" style="stroke:#181818;stroke-width:1.0;"/><polygon fill="#000000" points="332,80.2617,322.9549,77.3228,322.9549,83.2006,332,80.2617" style="stroke:#000000;stroke-width:1.0;"/><text fill="#000000" font-family="sans-serif" font-size="13" lengthAdjust="spacing" textLength="85" x="336" y="84.7686">é fornecido por</text><text fill="#000000" font-family="sans-serif" font-size="13" lengthAdjust="spacing" textLength="7" x="300.0306" y="101.1705">1</text><text fill="#000000" font-family="sans-serif" font-size="13" lengthAdjust="spacing" textLength="5" x="439.1132" y="100.9713">*</text></g><!--MD5=[00a2b7b20e7d7828fa181bc7c0dc6998]
link Cliente to Utilizador--><g id="link_Cliente_Utilizador"><path codeLine="40" d="M89.22,26.34 C116.78,26.01 155.24,25.89 189,27 C344.81,32.11 384.35,30.36 539,50 C572.21,54.22 580.58,55.68 613,64 C622.75,66.5 633.1,69.6 642.85,72.73 " fill="none" id="Cliente-Utilizador" style="stroke:#181818;stroke-width:1.0;"/><polygon fill="#000000" points="359.9825,24.6792,351.2144,20.9953,350.7236,26.8526,359.9825,24.6792" style="stroke:#000000;stroke-width:1.0;"/><text fill="#000000" font-family="sans-serif" font-size="13" lengthAdjust="spacing" textLength="29" x="364" y="28.7686">é um</text><text fill="#000000" font-family="sans-serif" font-size="13" lengthAdjust="spacing" textLength="7" x="96.9121" y="22.7445">1</text><text fill="#000000" font-family="sans-serif" font-size="13" lengthAdjust="spacing" textLength="7" x="627.8752" y="83.2019">1</text></g><!--MD5=[4b5c29bdb334a99154f0c9943c87889f]
link Empresa to Utilizador--><g id="link_Empresa_Utilizador"><path codeLine="41" d="M95.17,130.28 C128.84,134.12 176.82,138.98 219,141 C361.24,147.8 398.31,147.02 539,125 C574.34,119.47 613.6,109.43 642.72,101.2 " fill="none" id="Empresa-Utilizador" style="stroke:#181818;stroke-width:1.0;"/><polygon fill="#000000" points="359.993,132.9965,350.8047,130.5415,351.1165,136.411,359.993,132.9965" style="stroke:#000000;stroke-width:1.0;"/><text fill="#000000" font-family="sans-serif" font-size="13" lengthAdjust="spacing" textLength="29" x="364" y="137.7686">é um</text><text fill="#000000" font-family="sans-serif" font-size="13" lengthAdjust="spacing" textLength="7" x="103.0653" y="144.1555">1</text><text fill="#000000" font-family="sans-serif" font-size="13" lengthAdjust="spacing" textLength="7" x="628.0254" y="116.2583">1</text></g><!--MD5=[05a24132ee08845c9e3c37a4eb5ee83e]
link Produtor to Utilizador--><g id="link_Produtor_Utilizador"><path codeLine="42" d="M539.14,88 C569.99,88 611.56,88 642.68,88 " fill="none" id="Produtor-Utilizador" style="stroke:#181818;stroke-width:1.0;"/><polygon fill="#000000" points="579,80.2617,569.9549,77.3228,569.9549,83.2006,579,80.2617" style="stroke:#000000;stroke-width:1.0;"/><text fill="#000000" font-family="sans-serif" font-size="13" lengthAdjust="spacing" textLength="29" x="583" y="84.7686">é um</text><text fill="#000000" font-family="sans-serif" font-size="13" lengthAdjust="spacing" textLength="7" x="546.9476" y="100.9713">1</text><text fill="#000000" font-family="sans-serif" font-size="13" lengthAdjust="spacing" textLength="7" x="627.979" y="100.9545">1</text></g><!--MD5=[e0aacfde292490f0825f67ca5cb03b8c]
link Utilizador to Localização--><g id="link_Utilizador_Localização"><path codeLine="43" d="M732.26,88 C768.32,88 819.55,88 857.76,88 " fill="none" id="Utilizador-Localização" style="stroke:#181818;stroke-width:1.0;"/><polygon fill="#000000" points="772,80.2617,762.9549,77.3228,762.9549,83.2006,772,80.2617" style="stroke:#000000;stroke-width:1.0;"/><text fill="#000000" font-family="sans-serif" font-size="13" lengthAdjust="spacing" textLength="51" x="776" y="84.7686">tem uma</text><text fill="#000000" font-family="sans-serif" font-size="13" lengthAdjust="spacing" textLength="7" x="739.9514" y="100.9545">1</text><text fill="#000000" font-family="sans-serif" font-size="13" lengthAdjust="spacing" textLength="7" x="843.1356" y="100.7496">1</text></g><!--MD5=[7b7785ce9851da1e71860e7ea2fa91a1]
@startuml
'https://plantuml.com/class-diagram

hide methods
left to right direction
skinparam classAttributeIconSize 0

class Cabaz
class Cliente
class Empresa
class Localização
class Produtor
class Utilizador

class Cabaz{
-dia
-produtos
}

class Cliente{}

class Empresa{
-hub
}

class Localização{
-codLoc
-latitude
-longitude
}

class Produtor{}

class Utilizador{
-codUser
}

Cliente "1" - - "*" Cabaz : requisita >
Empresa "1" - - "*" Cabaz : requisita >
Cabaz "1" - - "*" Produtor : é fornecido por >
Cliente "1" - - "1" Utilizador : é um >
Empresa "1" - - "1" Utilizador : é um >
Produtor "1" - - "1" Utilizador : é um >
Utilizador "1" - - "1" Localização : tem uma >

@enduml

@startuml

hide methods
left to right direction
skinparam classAttributeIconSize 0

class Cabaz
class Cliente
class Empresa
class Localização
class Produtor
class Utilizador

class Cabaz{
-dia
-produtos
}

class Cliente{}

class Empresa{
-hub
}

class Localização{
-codLoc
-latitude
-longitude
}

class Produtor{}

class Utilizador{
-codUser
}

Cliente "1" - - "*" Cabaz : requisita >
Empresa "1" - - "*" Cabaz : requisita >
Cabaz "1" - - "*" Produtor : é fornecido por >
Cliente "1" - - "1" Utilizador : é um >
Empresa "1" - - "1" Utilizador : é um >
Produtor "1" - - "1" Utilizador : é um >
Utilizador "1" - - "1" Localização : tem uma >

@enduml

PlantUML version 1.2022.7(Mon Aug 22 18:01:30 WEST 2022)
(GPL source distribution)
Java Runtime: OpenJDK Runtime Environment
JVM: OpenJDK 64-Bit Server VM
Default Encoding: Cp1252
Language: pt
Country: PT
--></g></svg>