<?xml version="1.0" encoding="UTF-8" standalone="no"?><svg xmlns="http://www.w3.org/2000/svg" xmlns:xlink="http://www.w3.org/1999/xlink" contentStyleType="text/css" height="1252px" preserveAspectRatio="none" style="width:1008px;height:1252px;background:#FFFFFF;" version="1.1" viewBox="0 0 1008 1252" width="1008px" zoomAndPan="magnify"><defs/><g><rect fill="#FFFFFF" height="1072.1797" style="stroke:#181818;stroke-width:1.0;" width="10" x="36" y="90.6406"/><rect fill="#FFFFFF" height="43.0469" style="stroke:#181818;stroke-width:1.0;" width="10" x="309" y="125.6875"/><rect fill="#FFFFFF" height="139.0938" style="stroke:#181818;stroke-width:1.0;" width="10" x="309" y="211.7813"/><rect fill="#FFFFFF" height="28.5234" style="stroke:#181818;stroke-width:1.0;" width="10" x="309" y="379.3984"/><rect fill="#FFFFFF" height="711.375" style="stroke:#181818;stroke-width:1.0;" width="10" x="309" y="436.4453"/><rect fill="#FFFFFF" height="58.5234" style="stroke:#181818;stroke-width:1.0;" width="10" x="462" y="240.3047"/><rect fill="#FFFFFF" height="654.3281" style="stroke:#181818;stroke-width:1.0;" width="10" x="462" y="464.9688"/><rect fill="#FFFFFF" height="310.1406" style="stroke:#181818;stroke-width:1.0;" width="10" x="467" y="759.6328"/><rect fill="#FFFFFF" height="63.5234" style="stroke:#181818;stroke-width:1.0;" width="10" x="472" y="883.2031"/><rect fill="#FFFFFF" height="28" style="stroke:#181818;stroke-width:1.0;" width="10" x="472" y="1041.7734"/><rect fill="#FFFFFF" height="30" style="stroke:#181818;stroke-width:1.0;" width="10" x="701" y="493.4922"/><rect fill="#FFFFFF" height="140.5703" style="stroke:#181818;stroke-width:1.0;" width="10" x="701" y="575.5391"/><rect fill="#FFFFFF" height="30" style="stroke:#181818;stroke-width:1.0;" width="10" x="701" y="816.6797"/><rect fill="#FFFFFF" height="30" style="stroke:#181818;stroke-width:1.0;" width="10" x="917" y="268.8281"/><rect fill="#FFFFFF" height="30" style="stroke:#181818;stroke-width:1.0;" width="10" x="917" y="627.5859"/><rect fill="#FFFFFF" height="30" style="stroke:#181818;stroke-width:1.0;" width="10" x="917" y="686.1094"/><rect fill="#FFFFFF" height="30" style="stroke:#181818;stroke-width:1.0;" width="10" x="917" y="916.7266"/><rect fill="#FFFFFF" height="30" style="stroke:#181818;stroke-width:1.0;" width="10" x="917" y="975.25"/><rect fill="none" height="841.9922" style="stroke:#000000;stroke-width:1.5;" width="992" x="10" y="313.8281"/><rect fill="none" height="553.2813" style="stroke:#000000;stroke-width:1.5;" width="608.5" x="383.5" y="538.4922"/><rect fill="none" height="133.5703" style="stroke:#000000;stroke-width:1.5;" width="349.5" x="632.5" y="590.5391"/><rect fill="none" height="305.1406" style="stroke:#000000;stroke-width:1.5;" width="588.5" x="393.5" y="779.6328"/><line style="stroke:#181818;stroke-width:0.5;stroke-dasharray:5.0,5.0;" x1="41" x2="41" y1="80.6406" y2="1172.8203"/><line style="stroke:#181818;stroke-width:0.5;stroke-dasharray:5.0,5.0;" x1="314" x2="314" y1="80.6406" y2="1172.8203"/><line style="stroke:#181818;stroke-width:0.5;stroke-dasharray:5.0,5.0;" x1="466.5" x2="466.5" y1="80.6406" y2="1172.8203"/><line style="stroke:#181818;stroke-width:0.5;stroke-dasharray:5.0,5.0;" x1="705.5" x2="705.5" y1="80.6406" y2="1172.8203"/><line style="stroke:#181818;stroke-width:0.5;stroke-dasharray:5.0,5.0;" x1="922" x2="922" y1="80.6406" y2="1172.8203"/><text fill="#000000" font-family="sans-serif" font-size="14" lengthAdjust="spacing" textLength="36" x="20" y="77.6738">Client</text><ellipse cx="41" cy="13.5" fill="#E2E2F0" rx="8" ry="8" style="stroke:#181818;stroke-width:0.5;"/><path d="M41,21.5 L41,48.5 M28,29.5 L54,29.5 M41,48.5 L28,63.5 M41,48.5 L54,63.5 " fill="none" style="stroke:#181818;stroke-width:0.5;"/><text fill="#000000" font-family="sans-serif" font-size="14" lengthAdjust="spacing" textLength="36" x="20" y="1184.4941">Client</text><ellipse cx="41" cy="1195.9609" fill="#E2E2F0" rx="8" ry="8" style="stroke:#181818;stroke-width:0.5;"/><path d="M41,1203.9609 L41,1230.9609 M28,1211.9609 L54,1211.9609 M41,1230.9609 L28,1245.9609 M41,1230.9609 L54,1245.9609 " fill="none" style="stroke:#181818;stroke-width:0.5;"/><rect fill="#E2E2F0" height="29.6406" rx="2.5" ry="2.5" style="stroke:#181818;stroke-width:0.5;" width="48" x="290" y="50"/><text fill="#000000" font-family="sans-serif" font-size="14" lengthAdjust="spacing" textLength="34" x="297" y="69.6738">:main</text><rect fill="#E2E2F0" height="29.6406" rx="2.5" ry="2.5" style="stroke:#181818;stroke-width:0.5;" width="48" x="290" y="1171.8203"/><text fill="#000000" font-family="sans-serif" font-size="14" lengthAdjust="spacing" textLength="34" x="297" y="1191.4941">:main</text><rect fill="#E2E2F0" height="29.6406" rx="2.5" ry="2.5" style="stroke:#181818;stroke-width:0.5;" width="127" x="403.5" y="50"/><text fill="#000000" font-family="sans-serif" font-size="14" lengthAdjust="spacing" textLength="113" x="410.5" y="69.6738">:FuncControRega</text><rect fill="#E2E2F0" height="29.6406" rx="2.5" ry="2.5" style="stroke:#181818;stroke-width:0.5;" width="127" x="403.5" y="1171.8203"/><text fill="#000000" font-family="sans-serif" font-size="14" lengthAdjust="spacing" textLength="113" x="410.5" y="1191.4941">:FuncControRega</text><rect fill="#E2E2F0" height="29.6406" rx="2.5" ry="2.5" style="stroke:#181818;stroke-width:0.5;" width="127" x="642.5" y="50"/><text fill="#000000" font-family="sans-serif" font-size="14" lengthAdjust="spacing" textLength="113" x="649.5" y="69.6738">:ControladorRega</text><rect fill="#E2E2F0" height="29.6406" rx="2.5" ry="2.5" style="stroke:#181818;stroke-width:0.5;" width="127" x="642.5" y="1171.8203"/><text fill="#000000" font-family="sans-serif" font-size="14" lengthAdjust="spacing" textLength="113" x="649.5" y="1191.4941">:ControladorRega</text><rect fill="#E2E2F0" height="29.6406" rx="2.5" ry="2.5" style="stroke:#181818;stroke-width:0.5;" width="100" x="872" y="50"/><text fill="#000000" font-family="sans-serif" font-size="14" lengthAdjust="spacing" textLength="86" x="879" y="69.6738">:RegaParcela</text><rect fill="#E2E2F0" height="29.6406" rx="2.5" ry="2.5" style="stroke:#181818;stroke-width:0.5;" width="100" x="872" y="1171.8203"/><text fill="#000000" font-family="sans-serif" font-size="14" lengthAdjust="spacing" textLength="86" x="879" y="1191.4941">:RegaParcela</text><rect fill="#FFFFFF" height="1072.1797" style="stroke:#181818;stroke-width:1.0;" width="10" x="36" y="90.6406"/><rect fill="#FFFFFF" height="43.0469" style="stroke:#181818;stroke-width:1.0;" width="10" x="309" y="125.6875"/><rect fill="#FFFFFF" height="139.0938" style="stroke:#181818;stroke-width:1.0;" width="10" x="309" y="211.7813"/><rect fill="#FFFFFF" height="28.5234" style="stroke:#181818;stroke-width:1.0;" width="10" x="309" y="379.3984"/><rect fill="#FFFFFF" height="711.375" style="stroke:#181818;stroke-width:1.0;" width="10" x="309" y="436.4453"/><rect fill="#FFFFFF" height="58.5234" style="stroke:#181818;stroke-width:1.0;" width="10" x="462" y="240.3047"/><rect fill="#FFFFFF" height="654.3281" style="stroke:#181818;stroke-width:1.0;" width="10" x="462" y="464.9688"/><rect fill="#FFFFFF" height="310.1406" style="stroke:#181818;stroke-width:1.0;" width="10" x="467" y="759.6328"/><rect fill="#FFFFFF" height="63.5234" style="stroke:#181818;stroke-width:1.0;" width="10" x="472" y="883.2031"/><rect fill="#FFFFFF" height="28" style="stroke:#181818;stroke-width:1.0;" width="10" x="472" y="1041.7734"/><rect fill="#FFFFFF" height="30" style="stroke:#181818;stroke-width:1.0;" width="10" x="701" y="493.4922"/><rect fill="#FFFFFF" height="140.5703" style="stroke:#181818;stroke-width:1.0;" width="10" x="701" y="575.5391"/><rect fill="#FFFFFF" height="30" style="stroke:#181818;stroke-width:1.0;" width="10" x="701" y="816.6797"/><rect fill="#FFFFFF" height="30" style="stroke:#181818;stroke-width:1.0;" width="10" x="917" y="268.8281"/><rect fill="#FFFFFF" height="30" style="stroke:#181818;stroke-width:1.0;" width="10" x="917" y="627.5859"/><rect fill="#FFFFFF" height="30" style="stroke:#181818;stroke-width:1.0;" width="10" x="917" y="686.1094"/><rect fill="#FFFFFF" height="30" style="stroke:#181818;stroke-width:1.0;" width="10" x="917" y="916.7266"/><rect fill="#FFFFFF" height="30" style="stroke:#181818;stroke-width:1.0;" width="10" x="917" y="975.25"/><polygon fill="#181818" points="297,121.6875,307,125.6875,297,129.6875,301,125.6875" style="stroke:#181818;stroke-width:1.0;"/><line style="stroke:#181818;stroke-width:1.0;" x1="46" x2="303" y1="125.6875" y2="125.6875"/><text fill="#000000" font-family="sans-serif" font-size="13" lengthAdjust="spacing" textLength="178" x="53" y="106.4092">pede para usar a simulação do</text><text fill="#000000" font-family="sans-serif" font-size="13" lengthAdjust="spacing" textLength="239" x="53" y="120.9326">funcionamento de um controlador de rega</text><polygon fill="#181818" points="57,164.7344,47,168.7344,57,172.7344,53,168.7344" style="stroke:#181818;stroke-width:1.0;"/><line style="stroke:#181818;stroke-width:1.0;stroke-dasharray:2.0,2.0;" x1="51" x2="313" y1="168.7344" y2="168.7344"/><text fill="#000000" font-family="sans-serif" font-size="13" lengthAdjust="spacing" textLength="167" x="63" y="149.4561">pede o nome do ficheiro com</text><text fill="#000000" font-family="sans-serif" font-size="13" lengthAdjust="spacing" textLength="203" x="67" y="163.9795">a simulação do controlador de rega</text><polygon fill="#181818" points="297,207.7813,307,211.7813,297,215.7813,301,211.7813" style="stroke:#181818;stroke-width:1.0;"/><line style="stroke:#181818;stroke-width:1.0;" x1="46" x2="303" y1="211.7813" y2="211.7813"/><text fill="#000000" font-family="sans-serif" font-size="13" lengthAdjust="spacing" textLength="244" x="53" y="192.5029">digita o nome do ficheiro com a simulação</text><text fill="#000000" font-family="sans-serif" font-size="13" lengthAdjust="spacing" textLength="129" x="57" y="207.0264">do controlador de rega</text><polygon fill="#181818" points="450,236.3047,460,240.3047,450,244.3047,454,240.3047" style="stroke:#181818;stroke-width:1.0;"/><line style="stroke:#181818;stroke-width:1.0;" x1="319" x2="456" y1="240.3047" y2="240.3047"/><text fill="#000000" font-family="sans-serif" font-size="13" lengthAdjust="spacing" textLength="100" x="326" y="235.5498">readFile(fileRega)</text><polygon fill="#181818" points="905,264.8281,915,268.8281,905,272.8281,909,268.8281" style="stroke:#181818;stroke-width:1.0;"/><line style="stroke:#181818;stroke-width:1.0;" x1="472" x2="911" y1="268.8281" y2="268.8281"/><text fill="#000000" font-family="sans-serif" font-size="13" lengthAdjust="spacing" textLength="256" x="479" y="264.0732">RegaParcela(parcela, duracao, regularidade)</text><path d="M10,313.8281 L83,313.8281 L83,320.3516 L73,330.3516 L10,330.3516 L10,313.8281 " fill="#EEEEEE" style="stroke:#000000;stroke-width:1.5;"/><rect fill="none" height="841.9922" style="stroke:#000000;stroke-width:1.5;" width="992" x="10" y="313.8281"/><text fill="#000000" font-family="sans-serif" font-size="13" font-weight="bold" lengthAdjust="spacing" textLength="28" x="25" y="326.5967">loop</text><polygon fill="#181818" points="57,346.875,47,350.875,57,354.875,53,350.875" style="stroke:#181818;stroke-width:1.0;"/><line style="stroke:#181818;stroke-width:1.0;stroke-dasharray:2.0,2.0;" x1="51" x2="313" y1="350.875" y2="350.875"/><text fill="#000000" font-family="sans-serif" font-size="13" lengthAdjust="spacing" textLength="68" x="63" y="346.1201">pede a data</text><polygon fill="#181818" points="297,375.3984,307,379.3984,297,383.3984,301,379.3984" style="stroke:#181818;stroke-width:1.0;"/><line style="stroke:#181818;stroke-width:1.0;" x1="46" x2="303" y1="379.3984" y2="379.3984"/><text fill="#000000" font-family="sans-serif" font-size="13" lengthAdjust="spacing" textLength="71" x="53" y="374.6436">digita a data</text><polygon fill="#181818" points="57,403.9219,47,407.9219,57,411.9219,53,407.9219" style="stroke:#181818;stroke-width:1.0;"/><line style="stroke:#181818;stroke-width:1.0;stroke-dasharray:2.0,2.0;" x1="51" x2="313" y1="407.9219" y2="407.9219"/><text fill="#000000" font-family="sans-serif" font-size="13" lengthAdjust="spacing" textLength="79" x="63" y="403.167">pede o tempo</text><polygon fill="#181818" points="297,432.4453,307,436.4453,297,440.4453,301,436.4453" style="stroke:#181818;stroke-width:1.0;"/><line style="stroke:#181818;stroke-width:1.0;" x1="46" x2="303" y1="436.4453" y2="436.4453"/><text fill="#000000" font-family="sans-serif" font-size="13" lengthAdjust="spacing" textLength="82" x="53" y="431.6904">digita o tempo</text><polygon fill="#181818" points="450,460.9688,460,464.9688,450,468.9688,454,464.9688" style="stroke:#181818;stroke-width:1.0;"/><line style="stroke:#181818;stroke-width:1.0;" x1="319" x2="456" y1="464.9688" y2="464.9688"/><text fill="#000000" font-family="sans-serif" font-size="13" lengthAdjust="spacing" textLength="124" x="326" y="460.2139">isWatering(date,time)</text><polygon fill="#181818" points="689,489.4922,699,493.4922,689,497.4922,693,493.4922" style="stroke:#181818;stroke-width:1.0;"/><line style="stroke:#181818;stroke-width:1.0;" x1="472" x2="695" y1="493.4922" y2="493.4922"/><text fill="#000000" font-family="sans-serif" font-size="13" lengthAdjust="spacing" textLength="90" x="479" y="488.7373">getHorasRega()</text><path d="M383.5,538.4922 L456.5,538.4922 L456.5,545.0156 L446.5,555.0156 L383.5,555.0156 L383.5,538.4922 " fill="#EEEEEE" style="stroke:#000000;stroke-width:1.5;"/><rect fill="none" height="553.2813" style="stroke:#000000;stroke-width:1.5;" width="608.5" x="383.5" y="538.4922"/><text fill="#000000" font-family="sans-serif" font-size="13" font-weight="bold" lengthAdjust="spacing" textLength="28" x="398.5" y="551.2607">loop</text><text fill="#000000" font-family="sans-serif" font-size="11" font-weight="bold" lengthAdjust="spacing" textLength="252" x="471.5" y="550.4502">[(para cada hora de início de rega no ficheiro)]</text><polygon fill="#181818" points="689,571.5391,699,575.5391,689,579.5391,693,575.5391" style="stroke:#181818;stroke-width:1.0;"/><line style="stroke:#181818;stroke-width:1.0;" x1="472" x2="695" y1="575.5391" y2="575.5391"/><text fill="#000000" font-family="sans-serif" font-size="13" lengthAdjust="spacing" textLength="123" x="479" y="570.7842">getTempoRegaTotal()</text><path d="M632.5,590.5391 L705.5,590.5391 L705.5,597.0625 L695.5,607.0625 L632.5,607.0625 L632.5,590.5391 " fill="#EEEEEE" style="stroke:#000000;stroke-width:1.5;"/><rect fill="none" height="133.5703" style="stroke:#000000;stroke-width:1.5;" width="349.5" x="632.5" y="590.5391"/><text fill="#000000" font-family="sans-serif" font-size="13" font-weight="bold" lengthAdjust="spacing" textLength="28" x="647.5" y="603.3076">loop</text><text fill="#000000" font-family="sans-serif" font-size="11" font-weight="bold" lengthAdjust="spacing" textLength="218" x="720.5" y="602.4971">[(para cada rega de parcela no ficheiro)]</text><polygon fill="#181818" points="905,623.5859,915,627.5859,905,631.5859,909,627.5859" style="stroke:#181818;stroke-width:1.0;"/><line style="stroke:#181818;stroke-width:1.0;" x1="711" x2="911" y1="627.5859" y2="627.5859"/><text fill="#000000" font-family="sans-serif" font-size="13" lengthAdjust="spacing" textLength="112" x="718" y="622.8311">regaParcelas.size()</text><polygon fill="#181818" points="905,682.1094,915,686.1094,905,690.1094,909,686.1094" style="stroke:#181818;stroke-width:1.0;"/><line style="stroke:#181818;stroke-width:1.0;" x1="711" x2="911" y1="686.1094" y2="686.1094"/><text fill="#000000" font-family="sans-serif" font-size="13" lengthAdjust="spacing" textLength="187" x="718" y="681.3545">regaParcelas.get(i).getDuracao()</text><line style="stroke:#181818;stroke-width:1.0;" x1="472" x2="519" y1="746.6328" y2="746.6328"/><line style="stroke:#181818;stroke-width:1.0;" x1="519" x2="519" y1="746.6328" y2="759.6328"/><line style="stroke:#181818;stroke-width:1.0;" x1="478" x2="519" y1="759.6328" y2="759.6328"/><polygon fill="#181818" points="488,755.6328,478,759.6328,488,763.6328,484,759.6328" style="stroke:#181818;stroke-width:1.0;"/><text fill="#000000" font-family="sans-serif" font-size="13" lengthAdjust="spacing" textLength="172" x="484" y="741.8779">getPortion(date1, time1, hour)</text><path d="M393.5,779.6328 L466.5,779.6328 L466.5,786.1563 L456.5,796.1563 L393.5,796.1563 L393.5,779.6328 " fill="#EEEEEE" style="stroke:#000000;stroke-width:1.5;"/><rect fill="none" height="305.1406" style="stroke:#000000;stroke-width:1.5;" width="588.5" x="393.5" y="779.6328"/><text fill="#000000" font-family="sans-serif" font-size="13" font-weight="bold" lengthAdjust="spacing" textLength="28" x="408.5" y="792.4014">loop</text><text fill="#000000" font-family="sans-serif" font-size="11" font-weight="bold" lengthAdjust="spacing" textLength="218" x="481.5" y="791.5908">[(para cada rega de parcela no ficheiro)]</text><polygon fill="#181818" points="689,812.6797,699,816.6797,689,820.6797,693,816.6797" style="stroke:#181818;stroke-width:1.0;"/><line style="stroke:#181818;stroke-width:1.0;" x1="477" x2="695" y1="816.6797" y2="816.6797"/><text fill="#000000" font-family="sans-serif" font-size="13" lengthAdjust="spacing" textLength="205" x="484" y="811.9248">controladorRega.getRegaParcelas()</text><line style="stroke:#181818;stroke-width:1.0;" x1="477" x2="524" y1="870.2031" y2="870.2031"/><line style="stroke:#181818;stroke-width:1.0;" x1="524" x2="524" y1="870.2031" y2="883.2031"/><line style="stroke:#181818;stroke-width:1.0;" x1="483" x2="524" y1="883.2031" y2="883.2031"/><polygon fill="#181818" points="493,879.2031,483,883.2031,493,887.2031,489,883.2031" style="stroke:#181818;stroke-width:1.0;"/><text fill="#000000" font-family="sans-serif" font-size="13" lengthAdjust="spacing" textLength="195" x="489" y="865.4482">isWateringDay(date, regaParcela)</text><polygon fill="#181818" points="905,912.7266,915,916.7266,905,920.7266,909,916.7266" style="stroke:#181818;stroke-width:1.0;"/><line style="stroke:#181818;stroke-width:1.0;" x1="482" x2="911" y1="916.7266" y2="916.7266"/><text fill="#000000" font-family="sans-serif" font-size="13" lengthAdjust="spacing" textLength="101" x="489" y="911.9717">getRegularidade()</text><polygon fill="#181818" points="905,971.25,915,975.25,905,979.25,909,975.25" style="stroke:#181818;stroke-width:1.0;"/><line style="stroke:#181818;stroke-width:1.0;" x1="477" x2="911" y1="975.25" y2="975.25"/><text fill="#000000" font-family="sans-serif" font-size="13" lengthAdjust="spacing" textLength="70" x="484" y="970.4951">getParcela()</text><line style="stroke:#181818;stroke-width:1.0;" x1="482" x2="524" y1="1033.7734" y2="1033.7734"/><line style="stroke:#181818;stroke-width:1.0;" x1="524" x2="524" y1="1033.7734" y2="1046.7734"/><line style="stroke:#181818;stroke-width:1.0;" x1="483" x2="524" y1="1046.7734" y2="1046.7734"/><polygon fill="#181818" points="493,1042.7734,483,1046.7734,493,1050.7734,489,1046.7734" style="stroke:#181818;stroke-width:1.0;"/><text fill="#000000" font-family="sans-serif" font-size="13" lengthAdjust="spacing" textLength="129" x="489" y="1029.0186">getTimeLeft(time,hour)</text><polygon fill="#181818" points="330,1115.2969,320,1119.2969,330,1123.2969,326,1119.2969" style="stroke:#181818;stroke-width:1.0;"/><line style="stroke:#181818;stroke-width:1.0;stroke-dasharray:2.0,2.0;" x1="324" x2="466" y1="1119.2969" y2="1119.2969"/><text fill="#000000" font-family="sans-serif" font-size="13" lengthAdjust="spacing" textLength="109" x="336" y="1114.542">devolve o resultado</text><polygon fill="#181818" points="57,1143.8203,47,1147.8203,57,1151.8203,53,1147.8203" style="stroke:#181818;stroke-width:1.0;"/><line style="stroke:#181818;stroke-width:1.0;stroke-dasharray:2.0,2.0;" x1="51" x2="313" y1="1147.8203" y2="1147.8203"/><text fill="#000000" font-family="sans-serif" font-size="13" lengthAdjust="spacing" textLength="125" x="63" y="1143.0654">apresenta o resultado</text><!--MD5=[2402b3c5552fddbfa7a25eaf278ce5df]
@startuml
actor "Client" as cli
participant ":main" as main
participant ":FuncControRega" as funcControlador
participant ":ControladorRega" as controlador
participant ":RegaParcela" as parcela


activate cli

cli -> main : pede para usar a simulação do\nfuncionamento de um controlador de rega

activate main
main - -> cli : pede o nome do ficheiro com\n a simulação do controlador de rega
deactivate main

cli -> main : digita o nome do ficheiro com a simulação\n do controlador de rega
activate main

main -> funcControlador : readFile(fileRega)
activate funcControlador
funcControlador -> parcela : RegaParcela(parcela, duracao, regularidade)
activate parcela
deactivate parcela
deactivate funcControlador

loop

main - -> cli : pede a data
deactivate main

cli -> main : digita a data
activate main
main - -> cli : pede o tempo
deactivate main
cli -> main : digita o tempo
activate main
main -> funcControlador : isWatering(date,time)
activate funcControlador
funcControlador -> controlador : getHorasRega()
activate controlador
deactivate controlador


loop (para cada hora de início de rega no ficheiro)

funcControlador -> controlador : getTempoRegaTotal()
activate controlador
loop (para cada rega de parcela no ficheiro)
controlador -> parcela : regaParcelas.size()
activate parcela
deactivate parcela
controlador -> parcela : regaParcelas.get(i).getDuracao()
activate parcela
deactivate parcela
deactivate controlador
end

funcControlador -> funcControlador : getPortion(date1, time1, hour)
activate funcControlador
loop (para cada rega de parcela no ficheiro)
funcControlador -> controlador : controladorRega.getRegaParcelas()
activate controlador
deactivate controlador

funcControlador -> funcControlador : isWateringDay(date, regaParcela)
activate funcControlador
funcControlador -> parcela : getRegularidade()
activate parcela
deactivate parcela
deactivate funcControlador

funcControlador -> parcela : getParcela()
activate parcela
deactivate parcela

funcControlador -> funcControlador : getTimeLeft(time,hour)
activate funcControlador
deactivate funcControlador

deactivate funcControlador
end
end
funcControlador - -> main : devolve o resultado
deactivate funcControlador

main - -> cli : apresenta o resultado

deactivate main
end

deactivate cli

@enduml

PlantUML version 1.2022.7(Mon Aug 22 18:01:30 WEST 2022)
(GPL source distribution)
Java Runtime: OpenJDK Runtime Environment
JVM: OpenJDK 64-Bit Server VM
Default Encoding: Cp1252
Language: pt
Country: PT
--></g></svg>