<?xml version="1.0" encoding="UTF-8" standalone="no"?><svg xmlns="http://www.w3.org/2000/svg" xmlns:xlink="http://www.w3.org/1999/xlink" contentStyleType="text/css" height="483px" preserveAspectRatio="none" style="width:354px;height:483px;background:#FFFFFF;" version="1.1" viewBox="0 0 354 483" width="354px" zoomAndPan="magnify"><defs/><g><rect fill="#FFFFFF" height="302.2813" style="stroke:#181818;stroke-width:1.0;" width="10" x="36" y="90.6406"/><rect fill="#FFFFFF" height="43.0469" style="stroke:#181818;stroke-width:1.0;" width="10" x="309" y="125.6875"/><rect fill="#FFFFFF" height="52.0469" style="stroke:#181818;stroke-width:1.0;" width="10" x="309" y="211.7813"/><rect fill="#FFFFFF" height="28.5234" style="stroke:#181818;stroke-width:1.0;" width="10" x="309" y="292.3516"/><rect fill="#FFFFFF" height="28.5234" style="stroke:#181818;stroke-width:1.0;" width="10" x="309" y="349.3984"/><rect fill="none" height="159.1406" style="stroke:#000000;stroke-width:1.5;" width="338" x="10" y="226.7813"/><line style="stroke:#181818;stroke-width:0.5;stroke-dasharray:5.0,5.0;" x1="41" x2="41" y1="80.6406" y2="402.9219"/><line style="stroke:#181818;stroke-width:0.5;stroke-dasharray:5.0,5.0;" x1="314" x2="314" y1="80.6406" y2="402.9219"/><text fill="#000000" font-family="sans-serif" font-size="14" lengthAdjust="spacing" textLength="36" x="20" y="77.6738">Client</text><ellipse cx="41" cy="13.5" fill="#E2E2F0" rx="8" ry="8" style="stroke:#181818;stroke-width:0.5;"/><path d="M41,21.5 L41,48.5 M28,29.5 L54,29.5 M41,48.5 L28,63.5 M41,48.5 L54,63.5 " fill="none" style="stroke:#181818;stroke-width:0.5;"/><text fill="#000000" font-family="sans-serif" font-size="14" lengthAdjust="spacing" textLength="36" x="20" y="414.5957">Client</text><ellipse cx="41" cy="426.0625" fill="#E2E2F0" rx="8" ry="8" style="stroke:#181818;stroke-width:0.5;"/><path d="M41,434.0625 L41,461.0625 M28,442.0625 L54,442.0625 M41,461.0625 L28,476.0625 M41,461.0625 L54,476.0625 " fill="none" style="stroke:#181818;stroke-width:0.5;"/><rect fill="#E2E2F0" height="29.6406" rx="2.5" ry="2.5" style="stroke:#181818;stroke-width:0.5;" width="48" x="290" y="50"/><text fill="#000000" font-family="sans-serif" font-size="14" lengthAdjust="spacing" textLength="34" x="297" y="69.6738">:main</text><rect fill="#E2E2F0" height="29.6406" rx="2.5" ry="2.5" style="stroke:#181818;stroke-width:0.5;" width="48" x="290" y="401.9219"/><text fill="#000000" font-family="sans-serif" font-size="14" lengthAdjust="spacing" textLength="34" x="297" y="421.5957">:main</text><rect fill="#FFFFFF" height="302.2813" style="stroke:#181818;stroke-width:1.0;" width="10" x="36" y="90.6406"/><rect fill="#FFFFFF" height="43.0469" style="stroke:#181818;stroke-width:1.0;" width="10" x="309" y="125.6875"/><rect fill="#FFFFFF" height="52.0469" style="stroke:#181818;stroke-width:1.0;" width="10" x="309" y="211.7813"/><rect fill="#FFFFFF" height="28.5234" style="stroke:#181818;stroke-width:1.0;" width="10" x="309" y="292.3516"/><rect fill="#FFFFFF" height="28.5234" style="stroke:#181818;stroke-width:1.0;" width="10" x="309" y="349.3984"/><polygon fill="#181818" points="297,121.6875,307,125.6875,297,129.6875,301,125.6875" style="stroke:#181818;stroke-width:1.0;"/><line style="stroke:#181818;stroke-width:1.0;" x1="46" x2="303" y1="125.6875" y2="125.6875"/><text fill="#000000" font-family="sans-serif" font-size="13" lengthAdjust="spacing" textLength="178" x="53" y="106.4092">pede para usar a simulação do</text><text fill="#000000" font-family="sans-serif" font-size="13" lengthAdjust="spacing" textLength="239" x="53" y="120.9326">funcionamento de um controlador de rega</text><polygon fill="#181818" points="57,164.7344,47,168.7344,57,172.7344,53,168.7344" style="stroke:#181818;stroke-width:1.0;"/><line style="stroke:#181818;stroke-width:1.0;stroke-dasharray:2.0,2.0;" x1="51" x2="313" y1="168.7344" y2="168.7344"/><text fill="#000000" font-family="sans-serif" font-size="13" lengthAdjust="spacing" textLength="167" x="63" y="149.4561">pede o nome do ficheiro com</text><text fill="#000000" font-family="sans-serif" font-size="13" lengthAdjust="spacing" textLength="203" x="67" y="163.9795">a simulação do controlador de rega</text><polygon fill="#181818" points="297,207.7813,307,211.7813,297,215.7813,301,211.7813" style="stroke:#181818;stroke-width:1.0;"/><line style="stroke:#181818;stroke-width:1.0;" x1="46" x2="303" y1="211.7813" y2="211.7813"/><text fill="#000000" font-family="sans-serif" font-size="13" lengthAdjust="spacing" textLength="244" x="53" y="192.5029">digita o nome do ficheiro com a simulação</text><text fill="#000000" font-family="sans-serif" font-size="13" lengthAdjust="spacing" textLength="129" x="57" y="207.0264">do controlador de rega</text><path d="M10,226.7813 L83,226.7813 L83,233.3047 L73,243.3047 L10,243.3047 L10,226.7813 " fill="#EEEEEE" style="stroke:#000000;stroke-width:1.5;"/><rect fill="none" height="159.1406" style="stroke:#000000;stroke-width:1.5;" width="338" x="10" y="226.7813"/><text fill="#000000" font-family="sans-serif" font-size="13" font-weight="bold" lengthAdjust="spacing" textLength="28" x="25" y="239.5498">loop</text><polygon fill="#181818" points="57,259.8281,47,263.8281,57,267.8281,53,263.8281" style="stroke:#181818;stroke-width:1.0;"/><line style="stroke:#181818;stroke-width:1.0;stroke-dasharray:2.0,2.0;" x1="51" x2="313" y1="263.8281" y2="263.8281"/><text fill="#000000" font-family="sans-serif" font-size="13" lengthAdjust="spacing" textLength="68" x="63" y="259.0732">pede a data</text><polygon fill="#181818" points="297,288.3516,307,292.3516,297,296.3516,301,292.3516" style="stroke:#181818;stroke-width:1.0;"/><line style="stroke:#181818;stroke-width:1.0;" x1="46" x2="303" y1="292.3516" y2="292.3516"/><text fill="#000000" font-family="sans-serif" font-size="13" lengthAdjust="spacing" textLength="71" x="53" y="287.5967">digita a data</text><polygon fill="#181818" points="57,316.875,47,320.875,57,324.875,53,320.875" style="stroke:#181818;stroke-width:1.0;"/><line style="stroke:#181818;stroke-width:1.0;stroke-dasharray:2.0,2.0;" x1="51" x2="313" y1="320.875" y2="320.875"/><text fill="#000000" font-family="sans-serif" font-size="13" lengthAdjust="spacing" textLength="79" x="63" y="316.1201">pede o tempo</text><polygon fill="#181818" points="297,345.3984,307,349.3984,297,353.3984,301,349.3984" style="stroke:#181818;stroke-width:1.0;"/><line style="stroke:#181818;stroke-width:1.0;" x1="46" x2="303" y1="349.3984" y2="349.3984"/><text fill="#000000" font-family="sans-serif" font-size="13" lengthAdjust="spacing" textLength="82" x="53" y="344.6436">digita o tempo</text><polygon fill="#181818" points="57,373.9219,47,377.9219,57,381.9219,53,377.9219" style="stroke:#181818;stroke-width:1.0;"/><line style="stroke:#181818;stroke-width:1.0;stroke-dasharray:2.0,2.0;" x1="51" x2="313" y1="377.9219" y2="377.9219"/><text fill="#000000" font-family="sans-serif" font-size="13" lengthAdjust="spacing" textLength="125" x="63" y="373.167">apresenta o resultado</text><!--MD5=[b64ce2b98b77a7de0356134cbbe7d0dd]
@startuml
actor "Client" as cli
participant ":main" as main


activate cli

cli -> main : pede para usar a simulação do\nfuncionamento de um controlador de rega

activate main
main - -> cli : pede o nome do ficheiro com\n a simulação do controlador de rega
deactivate main

cli -> main : digita o nome do ficheiro com a simulação\n do controlador de rega
activate main
loop

main - -> cli : pede a data
deactivate main

cli -> main : digita a data
activate main
main - -> cli : pede o tempo
deactivate main
cli -> main : digita o tempo
activate main

main - -> cli : apresenta o resultado

deactivate main
end

deactivate cli

@enduml

PlantUML version 1.2022.7(Mon Aug 22 18:01:30 WEST 2022)
(GPL source distribution)
Java Runtime: OpenJDK Runtime Environment
JVM: OpenJDK 64-Bit Server VM
Default Encoding: Cp1252
Language: pt
Country: PT
--></g></svg>