<?xml version="1.0" encoding="UTF-8" standalone="no"?><svg xmlns="http://www.w3.org/2000/svg" xmlns:xlink="http://www.w3.org/1999/xlink" contentStyleType="text/css" height="573px" preserveAspectRatio="none" style="width:420px;height:573px;background:#FFFFFF;" version="1.1" viewBox="0 0 420 573" width="420px" zoomAndPan="magnify"><defs/><g><!--MD5=[4520fda4e10d4d791ce48fe025810cd4]
class main--><g id="elem_main"><rect fill="#F1F1F1" height="63.6406" id="main" rx="2.5" ry="2.5" style="stroke:#181818;stroke-width:0.5;" width="75" x="172.5" y="7"/><ellipse cx="193.35" cy="23" fill="#ADD1B2" rx="11" ry="11" style="stroke:#181818;stroke-width:1.0;"/><path d="M196.1156,18.875 Q196.2719,18.6563 196.4594,18.5469 Q196.6469,18.4375 196.8656,18.4375 Q197.2406,18.4375 197.475,18.7031 Q197.7094,18.9531 197.7094,19.5625 L197.7094,21.0156 Q197.7094,21.625 197.475,21.8906 Q197.2406,22.1563 196.8656,22.1563 Q196.5219,22.1563 196.3188,21.9531 Q196.1156,21.7656 196.0063,21.25 Q195.9594,20.8906 195.7719,20.7031 Q195.4438,20.3281 194.8344,20.1094 Q194.225,19.8906 193.6,19.8906 Q192.8344,19.8906 192.1938,20.2188 Q191.5688,20.5469 191.0688,21.2969 Q190.5844,22.0469 190.5844,23.0781 L190.5844,24.1719 Q190.5844,25.4063 191.475,26.2344 Q192.3656,27.0469 193.9594,27.0469 Q194.8969,27.0469 195.5531,26.7969 Q195.9438,26.6406 196.3656,26.2031 Q196.6313,25.9375 196.7719,25.8594 Q196.9281,25.7813 197.1313,25.7813 Q197.4594,25.7813 197.7094,26.0469 Q197.975,26.2969 197.975,26.6406 Q197.975,26.9844 197.6313,27.3906 Q197.1313,27.9688 196.3344,28.2969 Q195.2563,28.75 193.9594,28.75 Q192.4438,28.75 191.2406,28.125 Q190.2563,27.625 189.5688,26.5625 Q188.8813,25.4844 188.8813,24.2031 L188.8813,23.0469 Q188.8813,21.7188 189.4906,20.5781 Q190.1156,19.4219 191.2094,18.8125 Q192.3031,18.1875 193.5375,18.1875 Q194.2719,18.1875 194.9125,18.3594 Q195.5688,18.5156 196.1156,18.875 Z " fill="#000000"/><text fill="#000000" font-family="sans-serif" font-size="14" lengthAdjust="spacing" textLength="30" x="208.65" y="27.8535">main</text><line style="stroke:#181818;stroke-width:0.5;" x1="173.5" x2="246.5" y1="39" y2="39"/><line style="stroke:#181818;stroke-width:0.5;" x1="173.5" x2="246.5" y1="47" y2="47"/><ellipse cx="183.5" cy="60.3203" fill="#84BE84" rx="3" ry="3" style="stroke:#038048;stroke-width:1.0;"/><text fill="#000000" font-family="sans-serif" font-size="14" lengthAdjust="spacing" textLength="49" x="192.5" y="63.6738">us306()</text></g><!--MD5=[ee32579d79306fd07e57f6f96a3ec72b]
class FuncControRega--><g id="elem_FuncControRega"><rect fill="#F1F1F1" height="126.2031" id="FuncControRega" rx="2.5" ry="2.5" style="stroke:#181818;stroke-width:0.5;" width="406" x="7" y="131"/><ellipse cx="151.25" cy="147" fill="#ADD1B2" rx="11" ry="11" style="stroke:#181818;stroke-width:1.0;"/><path d="M154.0156,142.875 Q154.1719,142.6563 154.3594,142.5469 Q154.5469,142.4375 154.7656,142.4375 Q155.1406,142.4375 155.375,142.7031 Q155.6094,142.9531 155.6094,143.5625 L155.6094,145.0156 Q155.6094,145.625 155.375,145.8906 Q155.1406,146.1563 154.7656,146.1563 Q154.4219,146.1563 154.2188,145.9531 Q154.0156,145.7656 153.9063,145.25 Q153.8594,144.8906 153.6719,144.7031 Q153.3438,144.3281 152.7344,144.1094 Q152.125,143.8906 151.5,143.8906 Q150.7344,143.8906 150.0938,144.2188 Q149.4688,144.5469 148.9688,145.2969 Q148.4844,146.0469 148.4844,147.0781 L148.4844,148.1719 Q148.4844,149.4063 149.375,150.2344 Q150.2656,151.0469 151.8594,151.0469 Q152.7969,151.0469 153.4531,150.7969 Q153.8438,150.6406 154.2656,150.2031 Q154.5313,149.9375 154.6719,149.8594 Q154.8281,149.7813 155.0313,149.7813 Q155.3594,149.7813 155.6094,150.0469 Q155.875,150.2969 155.875,150.6406 Q155.875,150.9844 155.5313,151.3906 Q155.0313,151.9688 154.2344,152.2969 Q153.1563,152.75 151.8594,152.75 Q150.3438,152.75 149.1406,152.125 Q148.1563,151.625 147.4688,150.5625 Q146.7813,149.4844 146.7813,148.2031 L146.7813,147.0469 Q146.7813,145.7188 147.3906,144.5781 Q148.0156,143.4219 149.1094,142.8125 Q150.2031,142.1875 151.4375,142.1875 Q152.1719,142.1875 152.8125,142.3594 Q153.4688,142.5156 154.0156,142.875 Z " fill="#000000"/><text fill="#000000" font-family="sans-serif" font-size="14" lengthAdjust="spacing" textLength="109" x="171.75" y="151.8535">FuncControRega</text><line style="stroke:#181818;stroke-width:0.5;" x1="8" x2="412" y1="163" y2="163"/><line style="stroke:#181818;stroke-width:0.5;" x1="8" x2="412" y1="171" y2="171"/><ellipse cx="18" cy="184.3203" fill="#84BE84" rx="3" ry="3" style="stroke:#038048;stroke-width:1.0;"/><text fill="#000000" font-family="sans-serif" font-size="14" lengthAdjust="spacing" textLength="156" x="27" y="187.6738">readFile(String filename)</text><ellipse cx="18" cy="199.9609" fill="#84BE84" rx="3" ry="3" style="stroke:#038048;stroke-width:1.0;"/><text fill="#000000" font-family="sans-serif" font-size="14" lengthAdjust="spacing" textLength="221" x="27" y="203.3145">isWatering(String date, String time)</text><ellipse cx="18" cy="215.6016" fill="#84BE84" rx="3" ry="3" style="stroke:#038048;stroke-width:1.0;"/><text fill="#000000" font-family="sans-serif" font-size="14" lengthAdjust="spacing" textLength="380" x="27" y="218.9551">getPortion(LocalDate date, LocalTime time, LocalTime hour)</text><ellipse cx="18" cy="231.2422" fill="#84BE84" rx="3" ry="3" style="stroke:#038048;stroke-width:1.0;"/><text fill="#000000" font-family="sans-serif" font-size="14" lengthAdjust="spacing" textLength="369" x="27" y="234.5957">isWateringDay(LocalDate date, RegaParcela regaParcela)</text><ellipse cx="18" cy="246.8828" fill="#84BE84" rx="3" ry="3" style="stroke:#038048;stroke-width:1.0;"/><text fill="#000000" font-family="sans-serif" font-size="14" lengthAdjust="spacing" textLength="281" x="27" y="250.2363">getTimeLeft(LocalTime time, LocalTime end)</text></g><!--MD5=[7653d35d93c1755562433ff3e736d0b2]
class ControladorRega--><g id="elem_ControladorRega"><rect fill="#F1F1F1" height="94.9219" id="ControladorRega" rx="2.5" ry="2.5" style="stroke:#181818;stroke-width:0.5;" width="166" x="59" y="317"/><ellipse cx="85.25" cy="333" fill="#ADD1B2" rx="11" ry="11" style="stroke:#181818;stroke-width:1.0;"/><path d="M88.0156,328.875 Q88.1719,328.6563 88.3594,328.5469 Q88.5469,328.4375 88.7656,328.4375 Q89.1406,328.4375 89.375,328.7031 Q89.6094,328.9531 89.6094,329.5625 L89.6094,331.0156 Q89.6094,331.625 89.375,331.8906 Q89.1406,332.1563 88.7656,332.1563 Q88.4219,332.1563 88.2188,331.9531 Q88.0156,331.7656 87.9063,331.25 Q87.8594,330.8906 87.6719,330.7031 Q87.3438,330.3281 86.7344,330.1094 Q86.125,329.8906 85.5,329.8906 Q84.7344,329.8906 84.0938,330.2188 Q83.4688,330.5469 82.9688,331.2969 Q82.4844,332.0469 82.4844,333.0781 L82.4844,334.1719 Q82.4844,335.4063 83.375,336.2344 Q84.2656,337.0469 85.8594,337.0469 Q86.7969,337.0469 87.4531,336.7969 Q87.8438,336.6406 88.2656,336.2031 Q88.5313,335.9375 88.6719,335.8594 Q88.8281,335.7813 89.0313,335.7813 Q89.3594,335.7813 89.6094,336.0469 Q89.875,336.2969 89.875,336.6406 Q89.875,336.9844 89.5313,337.3906 Q89.0313,337.9688 88.2344,338.2969 Q87.1563,338.75 85.8594,338.75 Q84.3438,338.75 83.1406,338.125 Q82.1563,337.625 81.4688,336.5625 Q80.7813,335.4844 80.7813,334.2031 L80.7813,333.0469 Q80.7813,331.7188 81.3906,330.5781 Q82.0156,329.4219 83.1094,328.8125 Q84.2031,328.1875 85.4375,328.1875 Q86.1719,328.1875 86.8125,328.3594 Q87.4688,328.5156 88.0156,328.875 Z " fill="#000000"/><text fill="#000000" font-family="sans-serif" font-size="14" lengthAdjust="spacing" textLength="109" x="101.75" y="337.8535">ControladorRega</text><line style="stroke:#181818;stroke-width:0.5;" x1="60" x2="224" y1="349" y2="349"/><line style="stroke:#181818;stroke-width:0.5;" x1="60" x2="224" y1="357" y2="357"/><ellipse cx="70" cy="370.3203" fill="#84BE84" rx="3" ry="3" style="stroke:#038048;stroke-width:1.0;"/><text fill="#000000" font-family="sans-serif" font-size="14" lengthAdjust="spacing" textLength="101" x="79" y="373.6738">getHorasRega()</text><ellipse cx="70" cy="385.9609" fill="#84BE84" rx="3" ry="3" style="stroke:#038048;stroke-width:1.0;"/><text fill="#000000" font-family="sans-serif" font-size="14" lengthAdjust="spacing" textLength="119" x="79" y="389.3145">getRegaParcelas()</text><ellipse cx="70" cy="401.6016" fill="#84BE84" rx="3" ry="3" style="stroke:#038048;stroke-width:1.0;"/><text fill="#000000" font-family="sans-serif" font-size="14" lengthAdjust="spacing" textLength="140" x="79" y="404.9551">getTempoRegaTotal()</text></g><!--MD5=[7fcc88eb764044411be9fce497035a4b]
class RegaParcela--><g id="elem_RegaParcela"><rect fill="#F1F1F1" height="94.9219" id="RegaParcela" rx="2.5" ry="2.5" style="stroke:#181818;stroke-width:0.5;" width="141" x="139.5" y="472"/><ellipse cx="166.65" cy="488" fill="#ADD1B2" rx="11" ry="11" style="stroke:#181818;stroke-width:1.0;"/><path d="M169.4156,483.875 Q169.5719,483.6563 169.7594,483.5469 Q169.9469,483.4375 170.1656,483.4375 Q170.5406,483.4375 170.775,483.7031 Q171.0094,483.9531 171.0094,484.5625 L171.0094,486.0156 Q171.0094,486.625 170.775,486.8906 Q170.5406,487.1563 170.1656,487.1563 Q169.8219,487.1563 169.6188,486.9531 Q169.4156,486.7656 169.3063,486.25 Q169.2594,485.8906 169.0719,485.7031 Q168.7438,485.3281 168.1344,485.1094 Q167.525,484.8906 166.9,484.8906 Q166.1344,484.8906 165.4938,485.2188 Q164.8688,485.5469 164.3688,486.2969 Q163.8844,487.0469 163.8844,488.0781 L163.8844,489.1719 Q163.8844,490.4063 164.775,491.2344 Q165.6656,492.0469 167.2594,492.0469 Q168.1969,492.0469 168.8531,491.7969 Q169.2438,491.6406 169.6656,491.2031 Q169.9313,490.9375 170.0719,490.8594 Q170.2281,490.7813 170.4313,490.7813 Q170.7594,490.7813 171.0094,491.0469 Q171.275,491.2969 171.275,491.6406 Q171.275,491.9844 170.9313,492.3906 Q170.4313,492.9688 169.6344,493.2969 Q168.5563,493.75 167.2594,493.75 Q165.7438,493.75 164.5406,493.125 Q163.5563,492.625 162.8688,491.5625 Q162.1813,490.4844 162.1813,489.2031 L162.1813,488.0469 Q162.1813,486.7188 162.7906,485.5781 Q163.4156,484.4219 164.5094,483.8125 Q165.6031,483.1875 166.8375,483.1875 Q167.5719,483.1875 168.2125,483.3594 Q168.8688,483.5156 169.4156,483.875 Z " fill="#000000"/><text fill="#000000" font-family="sans-serif" font-size="14" lengthAdjust="spacing" textLength="82" x="183.35" y="492.8535">RegaParcela</text><line style="stroke:#181818;stroke-width:0.5;" x1="140.5" x2="279.5" y1="504" y2="504"/><line style="stroke:#181818;stroke-width:0.5;" x1="140.5" x2="279.5" y1="512" y2="512"/><ellipse cx="150.5" cy="525.3203" fill="#84BE84" rx="3" ry="3" style="stroke:#038048;stroke-width:1.0;"/><text fill="#000000" font-family="sans-serif" font-size="14" lengthAdjust="spacing" textLength="78" x="159.5" y="528.6738">getParcela()</text><ellipse cx="150.5" cy="540.9609" fill="#84BE84" rx="3" ry="3" style="stroke:#038048;stroke-width:1.0;"/><text fill="#000000" font-family="sans-serif" font-size="14" lengthAdjust="spacing" textLength="84" x="159.5" y="544.3145">getDuracao()</text><ellipse cx="150.5" cy="556.6016" fill="#84BE84" rx="3" ry="3" style="stroke:#038048;stroke-width:1.0;"/><text fill="#000000" font-family="sans-serif" font-size="14" lengthAdjust="spacing" textLength="115" x="159.5" y="559.9551">getRegularidade()</text></g><!--MD5=[6578b9cee997e65808e3003448ba0db9]
link main to FuncControRega--><g id="link_main_FuncControRega"><path codeLine="1" d="M210,71.33 C210,86.99 210,106.59 210,125.46 " fill="none" id="main-to-FuncControRega" style="stroke:#181818;stroke-width:1.0;stroke-dasharray:7.0,7.0;"/><polygon fill="#181818" points="210,130.75,214,121.75,210,125.75,206,121.75,210,130.75" style="stroke:#181818;stroke-width:1.0;"/></g><!--MD5=[0ccd577b98d9e2ab11add3e4be52f1a9]
link FuncControRega to ControladorRega--><g id="link_FuncControRega_ControladorRega"><path codeLine="2" d="M184.87,257.26 C177.61,275.26 169.77,294.69 162.8,311.96 " fill="none" id="FuncControRega-to-ControladorRega" style="stroke:#181818;stroke-width:1.0;stroke-dasharray:7.0,7.0;"/><polygon fill="#181818" points="160.86,316.77,167.9419,309.9256,162.7342,312.1346,160.5252,306.9268,160.86,316.77" style="stroke:#181818;stroke-width:1.0;"/></g><!--MD5=[0e10b192c6af60c35bc2f2b07eea1126]
link FuncControRega to RegaParcela--><g id="link_FuncControRega_RegaParcela"><path codeLine="3" d="M230.18,257.05 C235.44,276.07 240.37,297.21 243,317 C248.56,358.85 249.32,370.25 243,412 C240.23,430.28 234.94,449.75 229.38,466.97 " fill="none" id="FuncControRega-to-RegaParcela" style="stroke:#181818;stroke-width:1.0;stroke-dasharray:7.0,7.0;"/><polygon fill="#181818" points="227.81,471.76,234.4178,464.4568,229.3697,467.0095,226.817,461.9613,227.81,471.76" style="stroke:#181818;stroke-width:1.0;"/></g><!--MD5=[bd35513e1404fc3da850fbc1f1721f92]
link ControladorRega to RegaParcela--><g id="link_ControladorRega_RegaParcela"><path codeLine="4" d="M162.77,412.24 C170.45,429.51 179.19,449.18 187.05,466.86 " fill="none" id="ControladorRega-to-RegaParcela" style="stroke:#181818;stroke-width:1.0;stroke-dasharray:7.0,7.0;"/><polygon fill="#181818" points="189.24,471.79,189.2457,461.9411,187.212,467.2198,181.9333,465.186,189.24,471.79" style="stroke:#181818;stroke-width:1.0;"/></g><!--MD5=[bf901cfef1acf63b8a02111a21257448]
@startuml
main ..> FuncControRega
FuncControRega ..> ControladorRega
FuncControRega ..> RegaParcela
ControladorRega ..> RegaParcela

main : +us306()

FuncControRega : +readFile(String filename)
FuncControRega : +isWatering(String date, String time)
FuncControRega : +getPortion(LocalDate date, LocalTime time, LocalTime hour)
FuncControRega : +isWateringDay(LocalDate date, RegaParcela regaParcela)
FuncControRega : +getTimeLeft(LocalTime time, LocalTime end)

ControladorRega : +getHorasRega()
ControladorRega : +getRegaParcelas()
ControladorRega : +getTempoRegaTotal()

RegaParcela : +getParcela()
RegaParcela : +getDuracao()
RegaParcela : +getRegularidade()

@enduml

PlantUML version 1.2022.7(Mon Aug 22 18:01:30 WEST 2022)
(GPL source distribution)
Java Runtime: OpenJDK Runtime Environment
JVM: OpenJDK 64-Bit Server VM
Default Encoding: Cp1252
Language: pt
Country: PT
--></g></svg>